<?xml version="1.0" standalone="no"?>
<!DOCTYPE svg PUBLIC "-//W3C//DTD SVG 1.1//EN" "http://www.w3.org/Graphics/SVG/1.1/DTD/svg11.dtd" >
<!--
2013-9-30: Created.
-->
<svg>
<metadata>
Created by iconfont
</metadata>
<defs>

<font id="wk" horiz-adv-x="1024" >
  <font-face
    font-family="wk"
    font-weight="500"
    font-stretch="normal"
    units-per-em="1024"
    ascent="896"
    descent="-128"
  />
    <missing-glyph />
    
    <glyph glyph-name="unlock" unicode="&#58880;" d="M737.22343555 834q42.89970234 0 82.67130088-16.08738838t70.60575937-44.24031738 49.60278018-65.69016856 18.76861933-80.43694101l0-132.27408105-108.14299893 0 0 107.24925497q0 56.30585888-31.72790477 87.5868917t-85.35253184 31.28103281q-48.26216513 0-77.75571006-31.28103281t-29.49354492-87.5868917l0-109.03674287-112.61171778 0 0 134.06156895q0 42.89970234 16.98113233 80.43694101t46.92154922 65.69016856 70.60575937 44.24031738 88.92750762 16.08738838zM735.43594854 224.46673299999998l0-76.8619661 0-42.00595841q0-24.13108213-8.49056573-45.58093329t-23.23733906-36.64349561-34.85600771-24.13108212-44.24031739-8.9374377l-452.23435986 0q-24.13108213 0-43.79344629 8.49056572t-33.96226377 23.23733906-21.89672314 34.40913574-7.59682266 42.0059584l0 284.21052628q0 25.02482607 17.4280043 42.00595839t40.66534248 16.98113232l553.2274081 0q25.02482607 0 42.00595841-16.98113232t16.98113232-42.00595839l0-158.19265109z"  horiz-adv-x="1024" />

    
    <glyph glyph-name="warning" unicode="&#58897;" d="M511.689938 831.966615c-247.264547 0-447.709765-200.445218-447.709765-447.709765s200.445218-447.709765 447.709765-447.709765 447.709765 200.445218 447.709765 447.709765S758.954485 831.966615 511.689938 831.966615zM511.689938 104.43683999999996c-30.908964 0-55.963593 25.054629-55.963593 55.963593s25.054629 55.963593 55.963593 55.963593 55.963593-25.054629 55.963593-55.963593S542.598902 104.43683999999996 511.689938 104.43683999999996zM567.654554 328.292234c0-30.908964-25.054629-55.963593-55.963593-55.963593s-55.963593 25.054629-55.963593 55.963593L455.727369 608.111221c0 30.908964 25.054629 55.963593 55.963593 55.963593s55.963593-25.054629 55.963593-55.963593L567.654554 328.292234z"  horiz-adv-x="1024" />

    
    <glyph glyph-name="phone" unicode="&#58883;" d="M456.53 369.56100000000004c-71.475 71.43-139.791 154.183-107.033 186.896 46.792 46.838 87.583 75.671 4.65 178.913-82.936 103.239-138.256 23.959-183.65-21.434-52.298-52.344-2.752-247.454 190.101-440.349 192.856-192.809 388.009-242.443 440.349-190.059 45.394 45.351 124.628 100.625 21.437 183.603-103.195 82.983-132.074 42.19-178.914-4.645C610.712 229.86199999999997 528.002 298.13199999999995 456.53 369.56100000000004L456.53 369.56100000000004 456.53 369.56100000000004z"  horiz-adv-x="1024" />

    
    <glyph glyph-name="l-time" unicode="&#59019;" d="M759.19238258 13.211425780000013C759.19238258 13.211425780000013 264.80761742 13.211425780000013 264.80761742 13.211425780000013 239.2232058 13.211425780000013 218.45904565 33.975585939999974 218.45904565 59.559997560000056 218.45904565 59.559997560000056 218.45904565 90.45904565000001 218.45904565 90.45904565000001 218.45904565 95.92817710999998 219.81860352 101.02652002000002 221.57984924 105.90856932999998 219.81860352 110.79061865999995 218.45904565 115.88896155999998 218.45904565 121.35809302999996 218.45904565 121.35809302999996 218.45904565 708.44000244 218.45904565 708.44000244 218.45904565 734.02441406 239.2232058 754.78857422 264.80761742 754.78857422 264.80761742 754.78857422 295.7066648 754.78857422 295.7066648 754.78857422 321.29107642 754.78857422 342.05523657 734.02441406 342.05523657 708.44000244 342.05523657 708.44000244 342.05523657 136.80761742000004 342.05523657 136.80761742000004 342.05523657 136.80761742000004 759.19238258 136.80761742000004 759.19238258 136.80761742000004 784.7767942 136.80761742000004 805.54095435 116.04345726999998 805.54095435 90.45904565000001 805.54095435 90.45904565000001 805.54095435 59.559997560000056 805.54095435 59.559997560000056 805.54095435 33.975585939999974 784.7767942 13.211425780000013 759.19238258 13.211425780000013Z"  horiz-adv-x="1024" />

    
    <glyph glyph-name="plan" unicode="&#58994;" d="M632.4875 666.76875c-5.9625 0-11.25 2.08125-15.69375 6.3-4.5 4.21875-8.2125 9.28125-11.25 15.24375s-5.2875 12.15-6.75 18.45-2.19375 11.53125-2.25 15.75L596.54375 834l1.8 0C603.125 834 608.075 833.26875 613.19375 831.75s11.08125-4.33125 17.94375-8.55 15.24375-10.35 25.14375-18.45c9.9-8.1 22.33125-18.73125 37.29375-31.89375 16.2-14.4 28.96875-26.6625 38.25-36.84375s16.48125-18.73125 21.6-25.65c5.11875-6.91875 8.2125-12.76875 9.45-17.55 1.18125-4.78125 1.74375-9 1.8-12.6l0-13.5L632.4875 666.7125 632.4875 666.76875 632.4875 666.76875zM736.775 329.6625c27.5625 0 53.325-5.0625 77.2875-15.3 24.01875-10.125 45-24.1875 62.94375-42.1875 18-18 32.0625-38.98125 42.3-62.94375 10.18125-23.9625 15.24375-49.78125 15.24375-77.34375s-5.11875-53.38125-15.24375-77.34375c-10.2375-23.9625-24.3-44.94375-42.3-62.94375-17.94375-18-38.925-32.0625-62.94375-42.3C790.1-60.825000000000045 764.3375-66 736.775-66c-26.94375 0-52.48125 5.175-76.3875 15.24375-24.01875 10.2375-45 24.3-62.94375 42.3-18 18-32.23125 38.98125-42.69375 62.94375-10.51875 23.9625-15.75 49.78125-15.75 77.34375s5.23125 53.38125 15.75 77.34375c10.51875 23.9625 24.69375 44.94375 42.69375 62.94375 17.8875 18 38.86875 32.0625 62.94375 42.1875C684.35 324.54375000000005 709.83125 329.6625 736.775 329.6625L736.775 329.6625zM849.10625 100.44375000000002c5.4 0 10.2375 2.98125 14.4 9 4.1625 5.90625 6.3 13.1625 6.3 21.54375s-2.1375 15.58125-6.3 21.54375c-4.1625 6.01875-9 9-14.4 9l-85.44375 0 0 79.0875c0 4.8375-2.53125 9-7.65 12.65625s-12.15 5.4-21.09375 5.4c-9 0-15.69375-1.74375-20.25-5.4-4.5-3.6-6.69375-7.81875-6.69375-12.65625l0-98.8875c-1.18125-4.8375-1.8-8.325-1.8-10.74375 0-8.4375 2.08125-15.58125 6.24375-21.54375 4.21875-6.01875 9-9 14.45625-9L849.10625 100.44375000000002 849.10625 100.44375000000002zM480.55625 158.88750000000005l0-0.1125L258.48125 158.77499999999998c-15.58125 0-28.9125 5.5125-39.99375 16.59375s-16.59375 24.525-16.59375 40.10625c0 15.46875 5.5125 28.6875 16.59375 39.54375 11.08125 10.74375 24.4125 16.14375 39.99375 16.14375l261.61875 0C542.9375 306.54375000000005 572.8625 334.725 610.04375 355.70624999999995c37.125 21.0375 78.1875 31.5 123.13125 31.5l16.14375 0c5.45625 0 10.51875-0.5625 15.3-1.8L764.61875 609.225l-131.2875 0c-16.2 0-30.2625 3.6-42.24375 10.8C579.10625 627.225 569.2625 636.50625 561.5 647.86875 553.68125 659.2875 548 671.38125 544.4 684.2625 540.8 697.2 538.94375 709.63125 538.94375 721.6125L538.94375 834 194.6375 834C180.85625 834 167.6375 830.23125 155.09375 822.75 142.49375 815.26875 131.35625 805.81875 121.79375 794.4c-9.5625-11.3625-17.38125-23.79375-23.4-37.29375-5.9625-13.5-9-26.55-9-39.09375l0-613.18125c0-14.9625 3.88125-29.30625 11.7-43.2 7.7625-13.725 17.55-26.04375 29.25-36.7875s24.3-19.4625 37.74375-26.04375 25.93125-9.9 37.35-9.9l318.2625 0c-13.78125 20.98125-24.58125 43.36875-32.34375 67.33125-7.81875 24.075-11.7 49.44375-11.7 76.44375l0 13.5C479.65625 150.45000000000005 479.9375 154.61249999999995 480.55625 158.88750000000005L480.55625 158.88750000000005zM258.48125 496.8375l337.1625 0c15.525 0.05625 28.74375-5.5125 39.54375-16.59375S651.3875 455.775 651.3875 440.25s-5.45625-28.74375-16.2-39.54375S611.225 384.45 595.5875 384.45L258.48125 384.45c-15.58125 0-28.9125 5.45625-39.99375 16.2S201.8375 424.6125 201.8375 440.25s5.5125 28.9125 16.59375 39.99375S242.9 496.8375 258.48125 496.8375z"  horiz-adv-x="1024" />

    
    <glyph glyph-name="board" unicode="&#59090;" d="M512.01573781 746.95868812C257.71016375 746.95868812 51.56196687 539.36262281 51.56196687 283.27868813c0-96.29901656 29.14622906-185.73639375 79.05049219-259.87672126l762.79081969 1e-8c49.90426219 74.12459063 79.05049219 163.56196687 79.05049219 259.87672124C972.45377094 539.36262281 766.30557406 746.95868812 512.01573781 746.95868812zM512.01573781 675.6196725c36.32262281 0 65.78360625-29.64983625 65.78360625-66.24 0-36.59016375-29.44524563-66.24-65.78360625-66.24s-65.78360625 29.64983625-65.78360625 66.24C446.23213156 645.96983625 475.67737719 675.6196725 512.01573781 675.6196725zM178.06163938 217.03868812999997c-36.32262281 0-65.78360625 29.64983625-65.78360625 66.24 0 36.59016375 29.44524563 66.24 65.78360625 66.24s65.78360625-29.66557406 65.78360625-66.24C243.82950781 246.68852436999998 214.38426219 217.03868812999997 178.06163938 217.03868812999997zM279.25508188 451.4203275c-36.32262281 0-65.78360625 29.64983625-65.78360625 66.24 0 36.59016375 29.44524563 66.24 65.78360625 66.24s65.78360625-29.64983625 65.78360624-66.24C345.03868813 481.08590156 315.57770469 451.4203275 279.25508188 451.4203275zM620.306885 460.42229531l-53.46098344-199.53836062c24.96-17.48459062 41.31147562-46.58360625 41.31147563-79.53836063 0-53.47672125-43.04262281-96.81836062-96.14163938-96.81836062s-96.14163937 43.34163937-96.14163937 96.81836062c0 48.62950781 35.59868812 88.8865575 81.97770469 95.7796725l54.02754093 201.63147563c5.17770469 19.32590156 25.24327875 30.75147563 43.5934425 25.84131187C614.37377094 499.53049219 625.56327875 480.07868812 620.306885 460.42229531zM678.97704875 517.6603275c0 36.59016375 29.44524563 66.24 65.78360625 66.24s65.78360625-29.64983625 65.78360625-66.24c0-36.59016375-29.44524563-66.24-65.78360625-66.24S678.97704875 481.08590156 678.97704875 517.6603275zM845.95409844 217.03868812999997c-36.32262281 0-65.78360625 29.64983625-65.78360625 66.24 0 36.59016375 29.44524563 66.24 65.78360625 66.24s65.78360625-29.66557406 65.78360625-66.24C911.73770469 246.68852436999998 882.29245906 217.03868812999997 845.95409844 217.03868812999997z"  horiz-adv-x="1024" />

    
    <glyph glyph-name="sorting" unicode="&#58948;" d="M952.5528125 350.7159375c-12.2334375 12.1471875-27.519375 18.208125-42.8146875 18.208125-15.2953125 0-30.571875-6.069375-42.80625-18.208125L714.0471875 198.99749999999995 714.0471875 702.7171875c0 33.3815625-27.519375 57.66-58.0921875 57.66-30.5803125 0-58.100625-27.3121875-58.100625-57.66l0-646.3425c0-33.3815625 27.519375-57.6684375 58.100625-57.6684375 15.2859375 0 30.571875 6.0778125 42.80625 18.208125L949.491875 265.74375C977.0121875 290.02125 977.0121875 326.4375 952.5528125 350.7159375zM405.215 745.2028124999999c-12.225 12.1303125-27.52875 18.208125-42.8146875 18.208125-6.1125 0-12.225-3.0346875-18.3375-3.0346875 0 0 0 0-3.0609375 0-9.1734375-6.069375-15.2859375-12.13875-21.4078125-18.208125L71.9234375 496.3734375c-24.4678125-24.2690625-24.4678125-60.69375 0-81.9375 12.225-12.1303125 27.519375-18.1996875 42.80625-18.1996875s30.5803125 6.069375 42.80625 18.1996875L307.3690625 563.1375 307.3690625 59.39999999999998c0-33.3815625 27.52875-57.650625 58.100625-57.650625 30.5803125 0 58.0921875 27.3121875 58.0921875 57.650625L423.561875 699.6815625C423.5609375 714.864375 417.4484375 733.0640625 405.215 745.2028124999999z"  horiz-adv-x="1024" />

    
    <glyph glyph-name="PM" unicode="&#58984;" d="M811.104-13.024000000000001L215.552-13.024000000000001c-82.24 0-148.896 66.688-148.896 148.864l0 496.32c0 82.176 66.656 148.864 148.896 148.864l248.128 0c64.704 0 119.296-41.568 139.776-99.264l207.616 0c82.272 0 148.896-66.688 148.896-148.896l0-397.024C960 53.66399999999999 893.376-13.024000000000001 811.104-13.024000000000001L811.104-13.024000000000001zM811.104 582.496L513.344 582.496l0 49.664c0 27.424-22.24 49.632-49.632 49.632l-248.128 0c-27.36 0-49.632-22.176-49.632-49.632l0-496.32c0-27.424 22.272-49.632 49.632-49.632l49.632 0L265.216 433.632c0 27.424 22.24 49.632 49.632 49.632l545.952 0 0 49.632C860.736 560.3199999999999 838.496 582.496 811.104 582.496L811.104 582.496zM811.104 582.496"  horiz-adv-x="1024" />

    
    <glyph glyph-name="associate" unicode="&#59051;" d="M455.75 384L174.8853125 384C143.5596875 384 118.25 358.81601455 118.25 327.75L118.25 271.5 455.75 271.5 455.75 159 568.25 159 568.25 271.5 905.75 271.5 905.75 327.75C905.75 359.03260518 880.393625 384 849.1146875 384L568.25 384 568.25 496.5 455.75 496.5 455.75 384ZM343.25 778.2687375C343.25 809.04826465 368.617625 834 398.981375 834L625.018625 834C655.7980625 834 680.75 808.63264482 680.75 778.2687375L680.75 552.2312625C680.75 521.4517353599999 655.382375 496.5 625.018625 496.5L398.981375 496.5C368.2019375 496.5 343.25 521.86735518 343.25 552.2312625L343.25 778.2687375ZM118.25 271.5L230.75 271.5 230.75 159 118.25 159 118.25 271.5ZM793.25 271.5L905.75 271.5 905.75 159 793.25 159 793.25 271.5ZM399.5 102.22299902999998C399.5 133.58007393000003 424.4384375 159 456.2770625 159L567.7229375 159C599.0800625 159 624.5 134.06138232 624.5 102.22299902999998L624.5-9.222999029999983C624.5-40.580073930000026 599.5615625-66 567.7229375-66L456.2770625-66C424.9199375-66 399.5-41.06138232000001 399.5-9.222999029999983L399.5 102.22299902999998ZM62 102.22299902999998C62 133.58007393000003 86.9384375 159 118.7770625 159L230.2229375 159C261.5800625 159 287 134.06138232 287 102.22299902999998L287-9.222999029999983C287-40.580073930000026 262.0615625-66 230.2229375-66L118.7770625-66C87.4199375-66 62-41.06138232000001 62-9.222999029999983L62 102.22299902999998ZM737 102.22299902999998C737 133.58007393000003 761.9384375 159 793.7770625 159L905.2229375 159C936.5800625 159 962 134.06138232 962 102.22299902999998L962-9.222999029999983C962-40.580073930000026 937.0615625-66 905.2229375-66L793.7770625-66C762.4199375-66 737-41.06138232000001 737-9.222999029999983L737 102.22299902999998Z"  horiz-adv-x="1024" />

    
    <glyph glyph-name="edit" unicode="&#58944;" d="M933.875 647.671875c0-15.8203125-5.2734375-26.3671875-15.8203125-36.9140625l0 0L849.5 542.203125 670.203125 721.5l68.5546875 68.5546875 0 0C749.3046875 800.6015625 759.8515625 805.875 775.671875 805.875c15.8203125 0 26.3671875-5.2734375 36.9140625-15.8203125l0 0 105.46875-105.46875 0 0C928.6015625 674.0390625 933.875 663.4921875 933.875 647.671875zM596.375 647.671875L775.671875 468.375l-490.4296875-490.4296875 0 0C274.6953125-32.6015625 264.1484375-37.875 248.328125-37.875L142.859375-37.875c-31.640625 0-52.734375 21.09375-52.734375 52.734375l0 105.46875c0 15.8203125 5.2734375 26.3671875 15.8203125 36.9140625l0 0L596.375 647.671875z"  horiz-adv-x="1024" />

    
    <glyph glyph-name="write" unicode="&#58921;" d="M366.54566768 242.27049258l194.27278271 55.14251308L422.06322676 435.33719355l-55.51755908-193.07209746L366.54566768 242.27049258M885.49472041 620.10791865L746.74219502 757.98084083 441.36593984 454.57784795l138.80828761-137.92508701L885.49472041 620.10791865 885.49472041 620.10791865M845.03565195 109.28755518000003c0-47.94199541-38.81318467-86.74888447-86.81004317-86.74888448L237.35096211 22.53867070000001c-47.93030332 0-86.85591152 38.81408379-86.85591152 86.74888448L150.49505058 630.16400097c0 47.93120244 38.92111172 86.79475283 86.85591153 86.79475284l347.21498847 0 86.85591153 86.80914317L208.38160303 803.76789697c-79.87124707 0-144.68490352-64.81545469-144.68490352-144.69479736l0-578.71173339c0-79.87034795 64.81635469-144.68400439 144.68490352-144.6840044l578.81606309 0c79.87754268 0 144.68580263 64.81545469 144.68580263 144.6840044L931.88346875 543.3503604499999l-86.8550124-86.85950889 0-347.20509463 0.00269824 0L845.03565195 109.28755518000003M950.02776758 735.87203057L863.28517871 822.07678418c-14.41003008 14.30210302-38.47951055 13.52143213-53.82490694-1.64408553l-41.61298622-41.39443478 138.74892802-137.92868437 41.67054757 41.34316905c15.3453955 15.28153945 16.10807872 39.19362714 1.76280468 53.42737587l0 0L950.02776758 735.87203057M950.02776758 735.87203057L950.02776758 735.87203057z"  horiz-adv-x="1024" />

    
    <glyph glyph-name="enterprise" unicode="&#59040;" d="M933.13146729 444.66566895L591.91631123 799.81687588c-21.20222461 22.04855068-49.54470908 34.18312412-79.91981455 34.18312412-30.37600547 0-58.71938818-12.13277432-79.91801543-34.18312412L90.86422432 444.66566895c-35.21022714-36.65914541-30.67730068-68.34376318-24.85644698-81.57739043 4.14978662-9.39143232 18.15509092-35.20393154 58.4990376-35.20393155l50.01329092 0 0-273.21046348c0-62.03004346 44.54589815-120.43374609 107.85037763-120.43374609l57.40088204 0 87.85603389 0L427.62739942-1.563187790000029l0.00179912 224.94288867c0 30.99658448-4.69571661 48.27027305 26.97001435 48.27027305l57.39908379 0 57.39908379 0c31.6675292 0 26.97001435-17.27458769 26.97001435-48.27027305l0-224.94468779 0-64.19847305 87.85783213 0 57.39728467 0c63.30627862 0 107.85487412 58.40370263 107.85487412 120.4337461L849.47738487 327.88254786000005l50.00969355 0c40.3457458 0 54.35374834 25.81249922 58.50083671 35.20393154C963.80696972 376.32190576000005 968.33989619 408.00652354 933.13146729 444.66566895L933.13146729 444.66566895z"  horiz-adv-x="1024" />

    
    <glyph glyph-name="circle-password" unicode="&#58903;" d="M669.1296875-20.996250000000032H354.8675c-115.6996875 0-209.5134375 93.8146875-209.5134375 209.5125V398.0325c0 57.905625 46.906875 104.805 104.75625 104.805v52.3275c0 144.6525 117.2353125 261.8925 261.8896875 261.8925 144.605625 0 261.8896875-117.24 261.8896875-261.8925v-52.3275c57.849375 0 104.75625-46.899375 104.75625-104.805v-209.5153125c0-115.700625-93.80625-209.5125-209.51625-209.5125zM459.625625 203.04562499999997v-66.8559375c0-28.9528125 23.4225-52.374375 52.374375-52.374375 28.8975 0 52.381875 23.4196875 52.381875 52.374375v66.8559375c31.145625 18.1603125 52.374375 51.6140625 52.374375 90.2296875 0 57.9046875-46.906875 104.75625-104.75625 104.75625s-104.75625-46.8515625-104.75625-104.75625c0-38.61375 21.1725-72.069375 52.381875-90.2296875zM512 712.3518750000001c-86.803125 0-157.1325-70.3846875-157.1325-157.18875 0-18.46125 3.78375-35.908125 9.6140625-52.3265625h295.036875c5.83125 16.4184375 9.613125 33.8653125 9.613125 52.3265625-0.001875 86.803125-70.3771875 157.1878125-157.1315625 157.1878125z"  horiz-adv-x="1024" />

    
    <glyph glyph-name="product" unicode="&#58963;" d="M504.74193506 442.06451602c-18.14516104 0-36.29032295 3.62903203-50.80645108 10.88709697L170.87096797 594.48387099C149.09677403 601.7419350600001 138.20967705 616.2580649399999 138.20967705 634.40322597c0 18.14516104 10.88709698 32.66129004 29.03225801 43.54838702l286.69354892 145.16129004c14.51612901 7.25806494 36.29032295 10.88709698 54.43548399 10.88709697s36.29032295-3.62903203 50.80645107-10.88709697l283.06451602-137.90322598c18.14516104-10.88709698 29.032258-25.40322597 29.03225889-43.54838701s-10.88709698-32.66129004-29.03225889-43.54838701l-286.69354805-145.16129004c-10.88709698-7.25806494-32.66129004-10.88709698-50.80645195-10.88709697z m-58.06451602-508.06451602c-10.88709698 0-18.14516104 3.62903203-29.032258 7.25806494L167.24193506 71.90322597C138.20967705 86.41935497999998 112.80645195 119.08064502000002 112.80645195 144.48387099V503.75806494c0 25.40322597 18.14516104 43.54838701 43.54838701 43.54838701 7.25806494 0 18.14516104-3.62903203 25.40322598-7.25806494l254.03225801-130.64516104c29.032258-14.51612901 54.43548398-47.17741904 54.4354831-72.58064501v-355.64516192c0-29.032258-21.77419394-47.17741904-43.54838701-47.17741904z m134.27419395 0c-25.40322597 0-43.54838701 18.14516104-43.54838701 43.54838701v355.64516104c0 29.032258 21.77419394 58.06451602 54.43548399 72.58064589l254.032258 134.27419307c7.25806494 3.62903203 18.14516104 7.25806494 25.40322597 7.25806494 25.40322597 0 43.54838701-18.14516104 43.54838702-43.54838701v-355.64516192c0-29.032258-21.77419394-58.06451602-54.43548399-72.58064502l-254.03225801-134.27419306c-7.25806494-3.62903203-14.51612901-7.25806494-25.40322597-7.25806494z"  horiz-adv-x="1024" />

    
    <glyph glyph-name="circle-iphone" unicode="&#58919;" d="M512 861.04245021c-252.28206421 0-458.69466283-206.41259861-458.69466283-458.69466397s206.41259861-458.69466283 458.69466283-458.69466283 458.69466283 206.41259861 458.69466283 458.69466283-206.41259861 458.69466283-458.69466283 458.69466397z m119.26061283-724.73756786c-27.52167936-13.76083968-59.63030642-9.17389312-87.15198691 9.17389312-4.58694656 0-4.58694656 4.58694656-9.17389312 4.58694656-4.58694656 4.58694656-87.15198578 77.97809266-142.19534563 201.82565205S337.69602845 585.8256520499999 337.69602845 590.41259861v4.58694656c4.58694656 32.10862592 22.9347328 59.63030642 55.04335872 77.97809266 41.28252018 18.34778624 96.3258789 0 114.67366627-41.28252018s0-96.3258789-41.28252018-114.67366514h-4.58694656c4.58694656-32.10862592 18.34778624-73.3911461 36.69557362-114.67366627 18.34778624-41.28252018 41.28252018-77.97809266 64.21725298-100.91282546 0 0 4.58694656 0 4.58694656 4.58694656 41.28252018 18.34778624 96.3258789 0 114.67366513-41.28252017 13.76083968-55.04335986-4.58694656-110.08671971-50.45641216-128.43450482z"  horiz-adv-x="1024" />

    
    <glyph glyph-name="mobile" unicode="&#58900;" d="M219.5 728.11502637C219.5 786.5925114300001 267.37998769 834 325.42997364 834h373.13990683C757.06986553 834 804.4998541 786.88501143 804.4998541 728.11502637v-688.22982773C804.4998541-18.592286429999945 756.61986553-65.999775 698.56988047-65.999775H325.42997364A105.72747363 105.72747363 0 0 0 219.5 39.88519862999999V728.11502637z m292.49992705-742.88231455c31.16249209 0 56.40748594 24.61499385 56.40748594 55.01248682 0 30.37499209-25.24499385 55.01248594-56.40748594 55.01248594s-56.40748594-24.63749385-56.40748593-55.01248594c0-30.39749209 25.24499385-55.01248594 56.40748593-55.01248682z m-210.57744726 161.57245956h422.77489365V727.68752636H301.42247979v-580.88235498z"  horiz-adv-x="1024" />

    
    <glyph glyph-name="message" unicode="&#59028;" d="M512.05973333 837.8624C248.5664 837.8624 34.24 656.86506667 34.24 434.36906667c0-192.27413333 159.28106667-356.3808 380.84586667-394.82133334l69.2832-95.56373333c11.2-15.33333333 32.70826667-18.68266667 48.04053333-7.4816a34.3776 34.3776 0 0 1 7.48266667 7.4816l69.2832 95.56373333C830.69333333 77.96266666999998 989.97333333 242.04693333 989.97333333 434.3456c-0.11946667 222.51946667-214.4448 403.5168-477.9136 403.5168zM273.14986667 367.21066667c-37.13813333 0.55466667-66.7968 31.1104-66.24213334 68.24853333 0.5536 37.13813333 31.1104 66.7968 68.24853334 66.24213333 36.74453333-0.54826667 66.24533333-30.4896 66.2496-67.2384-0.27626667-37.3792-30.7328-67.49333333-68.11306667-67.34826666l-0.14293333 0.096z m238.90986666 0c-37.13813333 0.55466667-66.7968 31.1104-66.24213333 68.24853333s31.1104 66.7968 68.24853333 66.24213333c36.74453333-0.54826667 66.24533333-30.4896 66.2496-67.2384-0.26346667-37.38453333-30.72746667-67.5072-68.11306666-67.34826666l-0.14293334 0.096z m238.9088 0c-37.13813333 0.55466667-66.7968 31.1104-66.24213333 68.24853333s31.1104 66.7968 68.24853333 66.24213333c36.74453333-0.54826667 66.24533333-30.4896 66.2496-67.2384-0.26346667-37.38453333-30.72746667-67.5072-68.11306666-67.34826666l-0.14293334 0.096z"  horiz-adv-x="1024" />

    
    <glyph glyph-name="tag" unicode="&#58947;" d="M724.22 662.66999971c58.86 0 111.66000029 34.17000029 147.78 60.00000029V233.99999971c-36.11999971-25.83-88.89000029-60.00000029-147.78-59.99999942s-111.69 18.60000029-147.78 44.42999942c-36.11999971 25.83-88.89000029 44.43000029-147.78 44.43000029-58.86 0-111.66000029-31.95-147.78-57.75000029V693.75000029C316.99999971 719.61 369.8 751.49999971 428.66 751.49999971c58.88999971 0 111.69-18.60000029 147.78-44.42999942 36.11999971-25.80000029 88.89000029-44.39999971 147.78-44.40000058zM197.38999971 804.00000029c25.08000029 0 45.38999971-23.49 45.39000058-52.50000058V-36.00000029H152V751.49999971C152 780.51000029 172.31000029 804.00000029 197.38999971 804.00000029z"  horiz-adv-x="1024" />

    
    <glyph glyph-name="sold-out" unicode="&#58894;" d="M884.717 87.17100000999994H140.77199999c-41.113 0-74.39900001 33.339-74.39899999 74.39899999V347.547l245.494 334.77099999h409.172l238.07699998-334.77099999V161.57000000000005c0.001-41.06000001-33.335-74.39900001-74.39899998-74.39899999zM698.69200001 644.6800000000001H334.21100001L123.557 348.06600000000003l151.961-0.935 81.92099999-111.366 319.47900001-0.726 76.266 111.675 153.82799999 1.351-208.32 296.615z m-292.88-222.682l90.62499999 2.281V570.74300002c0 20.58400001 14.362 37.232 34.897 37.23199998 20.53200001 0 32.559-16.647 32.559-37.23200001v-146.46399999l90.62899999-2.281-123.18899999-141.853-125.52099999 141.853z"  horiz-adv-x="1024" />

    
    <glyph glyph-name="eye" unicode="&#58908;" d="M514.201 762.4970000000001c-272.371 0-493.866-166.09-493.866-370.367s221.495-370.367 493.866-370.367 493.866 166.219 493.866 370.367c0 204.148-221.625 370.367-493.866 370.367zM514.201 206.88099999999997c-102.269 0.13-185.119 82.979-185.248 185.248 0 102.14 83.109 185.248 185.248 185.248 102.14 0 185.248-83.109 185.248-185.248-0.258-102.269-83.109-185.119-185.248-185.248z"  horiz-adv-x="1024" />

    
    <glyph glyph-name="file" unicode="&#59825;" d="M961.55 54.60000000000002V609c0 67.05-62.1 60.3-62.1 60.3h-352.35c-22.05 0-31.95 10.8-31.95 10.8s-15.3 25.2-41.4 65.7C446.3 787.2 413 780.45 413 780.45H139.4C63.35 780.45 62 708 62 708v-649.35c0-80.55 62.1-71.1 62.1-71.1h780.75c66.15 0 56.7 67.05 56.7 67.05z m-146.25 384.3H208.7c-20.7 0-37.8 18-37.8 39.6 0 20.7 15.75 39.6 37.8 39.6h606.15c20.7 0 37.8-18 37.8-39.6 0.45-20.25-15.3-39.6-37.35-39.6z"  horiz-adv-x="1024" />

    
    <glyph glyph-name="cancel" unicode="&#59029;" d="M507.58974324-54.66666667000004A443.07692344 443.07692344 0 1 0 507.58974324 831.48717926a443.07692344 443.07692344 0 0 0 0-886.15384593z m74.95384687 671.92615406a65.42769187 65.42769187 0 0 1-66.46153875 66.83076937c-35.52 0-66.46153875-28.65230813-66.46153875-66.83076937 0-36.33230812 30.94153875-66.83076938 65.57538469-66.83076938 38.4 0 67.34769187 30.49846125 67.34769281 66.83076938z m-1.25538469-415.01538469V486.9210252a994.70769187 994.70769187 0 0 0-153.6-30.86769187v-36.77538469c40.54153875-6.86769188 46.44923062-9.45230813 46.44923063-66.16615406V202.31794864000005c0-60.99692344-5.09538469-64.39384594-53.98153875-70.44923063v-39.36H636.08205136v39.36c-50.58461531 6.86769188-54.79384594 11.15076937-54.79384594 70.44923063z"  horiz-adv-x="1024" />

    
    <glyph glyph-name="subtasks" unicode="&#58888;" d="M551.27272719 514.9090912500001c0-48 39.27272719-87.27272719 87.27272719-87.27272719h218.18181843C904.72727281 427.63636406 948.36363594 466.90909125 948.36363594 514.9090912500001V733.09090875c0 48-43.63636406 87.27272719-91.63636313 87.27272719h-218.18181843C590.54545438 820.36363594 555.63636406 781.09090875 555.63636406 733.09090875v-130.90909031H162.90909125V820.36363594H75.63636406v-698.1818175c0-48 34.90909125-87.27272719 87.27272719-87.27272719h388.36363594c0-48 39.27272719-87.27272719 87.27272719-87.27272719h218.18181843c48 0 91.63636406 39.27272719 91.63636313 87.27272719v218.1818175c0 48-43.63636406 87.27272719-91.63636313 87.27272719h-218.18181843c-48 0-82.90909125-39.27272719-82.90909032-87.27272719v-130.90909031H202.18181844c-26.18181844 0-39.27272719 17.45454563-39.27272719 43.63636312V514.9090912500001h388.36363594zM642.90909125 689.45454562c0 26.18181844 17.45454563 43.63636406 43.63636313 43.63636313h130.90909124c26.18181844 0 43.63636406-17.45454563 43.63636313-43.63636312v-130.90909125c0-26.18181844-17.45454563-43.63636406-43.63636313-43.63636313h-130.90909125c-26.18181844 0-43.63636406 17.45454563-43.63636312 43.63636312V689.45454562z m0-479.99999999c0 26.18181844 17.45454563 43.63636406 43.63636313 43.63636312h130.90909124c26.18181844 0 43.63636406-17.45454563 43.63636313-43.63636313v-130.90909124c0-26.18181844-17.45454563-43.63636406-43.63636313-43.63636313h-130.90909125c-26.18181844 0-43.63636406 17.45454563-43.63636312 43.63636313v130.90909125z"  horiz-adv-x="1024" />

    
    <glyph glyph-name="screening" unicode="&#58933;" d="M154.2 752S4.5 708.1 93 568.6c94.3-107 275.2-275.2 275.2-275.2v-249.6c0-24 27.9-37.2 46.4-21.9 37.4 30.9 89.1 80.4 117 107.7 13.3 13 20.9 30.7 21 49.3 0.4 43.3-1.1 114.6-1.1 114.6s290.6 267.6 305.8 305.8c21 40.1 10.8 138.2-91.8 152.9-203.6 2.3-611.3-0.2-611.3-0.2z m0 0M660 256h300v-80H660zM660 94h300v-80H660z"  horiz-adv-x="1024" />

    
    <glyph glyph-name="pack-up" unicode="&#58881;" d="M217.2859042 192.51063867000005C187.66489326 192.51063867000005 163.72872354 218.39162226999997 163.72872354 249.95744706999994s23.9361706 57.44680839 53.55718066 57.4468084h610.82114326c29.62101094 0 53.55718067-25.88098447 53.55718155-57.4468084s-23.9361706-57.44680839-53.55718155-57.4468084H217.2859042zM217.2859042 460.59574453C187.66489326 460.59574453 163.72872354 486.47672901 163.72872354 518.04255293s23.9361706 57.44680839 53.55718066 57.4468084h610.82114326c29.62101094 0 53.55718067-25.88098447 53.55718155-57.4468084s-23.9361706-57.44680839-53.55718155-57.4468084H217.2859042zM221.17553193 719.1063832c-32.61303193 0-58.49401552 26.77859033-57.44680839 59.39162227 0.89760674 31.5658248 28.7234042 55.50199453 60.28922899 55.50199453h935.45545167c32.46343067 0 58.34441513-26.77859033 57.4468084-59.39162227-0.89760674-31.5658248-28.7234042-55.50199453-60.28922812-55.50199453H221.17553193zM925.19813867 366.49667519L1146.75731386 224.52526552999996c13.61369707-8.67686133 31.41622354 1.04720713 31.41622354 17.20412314V525.37300547c0 16.15691513-17.80252646 25.88098447-31.41622354 17.20412226L925.19813867 400.75531933c-12.56648906-7.92885674-12.56648906-26.3297874 0-34.25864413zM1159.4734042 48.89361680000002c32.46343067 0 58.34441513-26.77859033 57.4468084-59.39162227-0.89760674-31.5658248-28.7234042-55.50199453-60.28922813-55.50199453H221.17553193c-32.61303193 0-58.34441513 26.77859033-57.44680839 59.39162227 0.89760674 31.5658248 28.7234042 55.50199453 60.28922899 55.50199453h935.45545167z"  horiz-adv-x="1448" />

    
    <glyph glyph-name="s-contacts" unicode="&#58884;" d="M249.49999971 309.00000029h525.00000058a187.49999971 187.49999971 0 0 0 187.49999971-187.50000058v-112.5a74.99999971 74.99999971 0 0 0-74.99999971-74.99999971H136.99999971a74.99999971 74.99999971 0 0 0-74.99999971 74.99999971v112.5a187.49999971 187.49999971 0 0 0 187.49999971 187.50000058z m262.50000029 74.99999971a225 225 0 1 0 0 450 225 225 0 0 0 0-450z"  horiz-adv-x="1024" />

    
    <glyph glyph-name="user" unicode="&#58882;" d="M502.566875 352.9715625c138.64875 0 251.465625 111.125625 251.4590625 247.7709375 0 136.6378125-112.809375 247.771875-251.458125 247.771875-138.6478125 0-251.458125-111.1734375-251.458125-247.771875 0-136.6059375 112.809375-247.771875 251.45625-247.771875z m103.6246875-23.859375H417.7784375c-175.0875 0-317.4975-140.221875-317.4975-312.6309375v-18.556875c0-90.13125 140.1309375-90.13125 317.4975-90.13125h188.413125c170.38875 0 317.5265625 0 317.5265625 90.13125V16.481250000000045c-0.001875 172.370625-142.434375 312.6309375-317.5265625 312.6309375z"  horiz-adv-x="1024" />

    
    <glyph glyph-name="type" unicode="&#59018;" d="M405.03125 423.28125c37.875 0 67.6875 29.8125 67.6875 67.6875V626.25C472.71875 738.65625 382.0625 829.3125 269.75 829.3125 157.34375 829.3125 66.6875 738.65625 66.6875 626.25c0-112.3125 90.65625-203.0625 203.0625-203.0625h135.28125z m213.9375 0h135.375c112.3125 0 203.0625 90.65625 203.0625 203.0625C957.3125 738.65625 866.65625 829.3125 754.25 829.3125c-112.3125 0-203.0625-90.65625-203.0625-203.0625V490.875c0.09375-37.875 31.21875-67.59375 67.78125-67.59375z m-213.9375-78.5625H269.75C157.34375 344.71875 66.6875 254.0625 66.6875 141.75S157.34375-61.3125 269.75-61.3125c112.3125 0 203.0625 90.65625 203.0625 203.0625V277.03125c-0.09375 36.5625-29.8125 67.6875-67.78125 67.6875z m213.9375 0c-37.875 0-67.6875-29.8125-67.6875-67.6875v-135.375c0-112.3125 90.65625-203.0625 203.0625-203.0625C866.65625-61.3125 957.3125 29.34375 957.3125 141.75s-90.65625 203.0625-203.0625 203.0625H618.96875z m0 0M618.96875 344.71875c-37.875 0-67.6875-29.8125-67.6875-67.6875v-135.375c0-112.3125 90.65625-203.0625 203.0625-203.0625C866.65625-61.3125 957.3125 29.34375 957.3125 141.75s-90.65625 203.0625-203.0625 203.0625H618.96875z m0 0"  horiz-adv-x="1024" />

    
    <glyph glyph-name="password" unicode="&#58898;" d="M778.82352911 447.84705908l-54.74117638-0.31764726V583.05882363C724.08235273 733.94117637 633.23529453 833.84117637 491.88235273 834 350.52941182 833.8941172899999 257.98823545 728.85882363 257.98823545 583.05882363v-134.47058818c-4.81764727 0-56.11764727-0.74117636-60.7764709-0.74117637C163.27647089 447.84705908 141.41176455 416.82352911 141.41176455 383.25882363999995v-382.39411817c0-37.90588271 18.74117637-65.80588271 54.84705908-65.80588184h584.25882364c28.27058818 0 60.45882364 27.31764727 60.45882363 76.5V374.57647089c0 37.85294092-11.7 73.27058818-62.10000001 73.27058819zM491.35294092 18.70588270999997c-42.93529453 0-77.77058818 38.38235273-77.77058819 85.71176456v1.3235291c0 31.71176455 15.67058818 59.34705908 38.85882363 74.17058818V338.04705908000005c0 22.55294092 16.62352911 24.77647089 37.05882364 24.77647002 20.48823545 0 40.76470547-2.22352911 40.76470547-24.77647002v-158.13529453c23.18823545-14.8235291 38.80588271-42.45882363 38.80588271-74.17058818v-1.3235291c0-47.32941182-34.78235273-85.71176455-77.71764726-85.71176456z m155.96470635 430.14705821H336.23529453V621.1764709c0 82.69411729 86.02941182 127.69411729 150.82941094 127.69411728h14.18823545c64.90588271 0 146.01176455-41.8235291 146.01176455-127.69411728v-172.32352998z"  horiz-adv-x="1024" />

    
    <glyph glyph-name="help" unicode="&#58962;" d="M512 834C263.515625 834 62.05009766 632.53447266 62.05009766 384.05009766S263.515625-65.89892578000001 512-65.89892578000001s449.94990234 201.46552734 449.94990234 449.94902344S760.58457031 834 512 834z m-14.39736328-721.89316406c-28.79560547 0-52.15429688 23.86230469-52.15429688 53.16064453 0 29.39941406 23.35869141 53.16064453 52.15429688 53.16064453s52.15341797-23.76123047 52.15341797-53.16064453-23.35869141-53.16064453-52.15429688-53.16064453z m145.6875 334.06435547c-7.24921875-13.69335938-15.70605469-25.57353516-25.67460938-35.54033204-9.86660156-9.96767578-27.68730469-26.78203125-53.36103515-50.34199218-7.04882813-6.64453125-12.78720703-12.48398438-17.015625-17.51835938-4.22841797-5.034375-7.45048828-9.66533203-9.56513672-13.79355469-2.11376953-4.12822266-3.72480469-8.35664063-4.83222656-12.5859375-1.10742188-4.22753906-2.81953125-11.57783203-5.13544922-22.04912109-3.92607422-22.35058594-16.4109375-33.4265625-37.25244141-33.4265625-10.87294922 0-19.93447266 3.62460937-27.38496094 10.97490234-7.45048828 7.34941406-11.07509766 18.12304688-11.07509765 32.51953125 0 18.02285156 2.71845703 33.62871094 8.15537109 46.81845704 5.43691406 13.18886719 12.58505859 24.76757813 21.54550781 34.734375 8.96132812 9.96855469 21.04277344 21.84960938 36.24609375 35.54121093 13.39013672 11.98125 22.95527344 21.04277344 28.89580079 27.18457032 5.93964844 6.14179687 10.97402344 12.88740234 15.00117187 20.43896484 4.02802734 7.55068359 6.14179687 15.60498047 6.14179688 24.46523437 0 17.11582031-6.24199219 31.61425781-18.62578125 43.39423829-12.38378906 11.77998047-28.39306641 17.72050781-48.02607422 17.72050781-22.95527344 0-39.86982422-5.94140625-50.64257813-17.82070313-10.87382813-11.88105469-20.03642578-29.39941406-27.48691406-52.55683593-7.04794922-24.26396484-20.53916016-36.34628906-40.3734375-36.34628907-11.67890625 0-21.54638672 4.22841797-29.60068359 12.68613282-8.05429688 8.45771484-12.08144531 17.61943359-12.08144532 27.48603515 0 20.33789063 6.3421875 40.978125 19.02832032 61.91982422 12.68613281 20.94169922 31.31279297 38.25878906 55.67783203 51.95214844 24.36503906 13.69335938 52.85742188 20.54003906 85.37871093 20.54003906 30.20449219 0 56.98564453-5.73925781 80.04199219-17.21777344 23.15742188-11.47763672 41.07832031-27.08349609 53.66425781-46.81669922 12.58505859-19.73408203 18.928125-41.17939453 18.928125-64.3359375 0.20126953-18.22412109-3.32226563-34.23251953-10.57148437-48.02607421z"  horiz-adv-x="1024" />

    
    <glyph glyph-name="reset" unicode="&#58885;" d="M788.48 695.04c-80.64 80.64-192 130.56-314.88 130.56C231.68 825.6 32 629.76 32 384c0-245.76 199.68-441.6 441.6-441.6 218.88 0 399.36 161.28 437.76 368.64L761.6 311.03999999999996c-34.56-126.72-149.76-222.72-284.16-222.72-161.28 0-295.68 130.56-295.68 295.68 0 161.28 130.56 295.68 295.68 295.68 80.64 0 153.6-34.56 207.36-88.32l-134.4-134.4 368.64 0L919.04 825.6 788.48 695.04z"  horiz-adv-x="1024" />

    
    <glyph glyph-name="contacts" unicode="&#58916;" d="M782.57796875-37.875H245.64078125c-52.95375 0-95.87953125 42.93-95.87953125 95.88375v95.88375h115.05796875a38.356875 38.356875 0 0 1 0 76.7053125H149.76125V345.65156249999995h115.05796875c21.18234375 0 38.35265625 17.1703125 38.35265625 38.35265625s-17.1703125 38.35265625-38.35265625 38.35265625H149.76125V537.410625h115.05796875c21.18234375 0 38.35265625 17.1703125 38.35265625 38.35265625s-17.1703125 38.35265625-38.35265625 38.35265625H149.76125V709.99125C149.76125 762.94921875 192.69125 805.875 245.64078125 805.875h536.93296875c52.95375 0 95.87953125-42.92578125 95.87953125-95.88375v-651.98671875c0-52.94953125-42.92578125-95.87953125-95.8753125-95.87953125zM590.8146875 614.11171875c-52.95375 0-95.87953125-42.92578125-95.87953125-95.87953125 0-52.95796875 42.92578125-95.88375 95.87953125-95.88375 52.95796875 0 95.88375 42.92578125 95.88375 95.88375-0.00421875 52.95375-42.93 95.87953125-95.88375 95.87953125z m0-230.11171875c-95.3184375 0-172.580625-77.26640625-172.580625-172.58484375 0.24890625-6.4209375 0.8859375-12.82921875 1.91109375-19.1784375h341.3390625c1.02515625 6.34921875 1.66640625 12.75328125 1.9153125 19.1784375 0 95.3184375-77.270625 172.58484375-172.58484375 172.58484375z"  horiz-adv-x="1024" />

    
    <glyph glyph-name="shelves" unicode="&#58896;" d="M886.671 84.24199999999996H137.33c-41.411 0-74.939 33.578-74.939 74.939V346.558l247.276 337.2h412.14l239.804-337.2v-187.376c0-41.362-33.578-74.94-74.939-74.94zM699.297 645.793H332.12L119.99 346.97299999999996l153.064-0.885 82.514-112.176 321.796-0.732 76.82 112.488 154.944 1.304-209.831 298.821zM563.519 309.057c0-20.677-12.115-37.495-32.796-37.495-20.683 0-35.093 16.818-35.093 37.495V456.59l-91.338 2.348L530.724 601.77 654.86 458.938l-91.339-2.348v-147.533z"  horiz-adv-x="1024" />

    
    <glyph glyph-name="turnon" unicode="&#58946;" d="M1327.43823242 396.38433838A357.95928955 357.95928955 0 0 1 969.55310059 754.34362793H499.39318847a357.95928955 357.95928955 0 1 1 1e-8-715.91857911h470.1599121a357.95928955 357.95928955 0 0 1 357.95928955 357.95928956z m-32.62939452-0.74157715a324.81079102 324.81079102 0 1 0-649.76989747 0 324.81079102 324.81079102 0 0 0 649.69573975 0z"  horiz-adv-x="1638" />

    
    <glyph glyph-name="data" unicode="&#58982;" d="M289.4656 234.5856c-7.872-0.8448-15.2064 2.112-22.272 7.008a38.4768 38.4768 0 0 0-9.9072 53.7408l121.2672 172.9536a38.4768 38.4768 0 0 0 53.7408 9.9072c17.664-12.192 22.08-36.0768 9.888-53.76l-121.248-172.9536c-7.584-12.4992-17.8752-16.8768-31.4688-16.896zM619.2832 277.4208c-7.872-0.8448-15.2064 2.112-22.272 7.008a38.4768 38.4768 0 0 0-9.9072 53.7408l121.248 172.9536a38.4768 38.4768 0 0 0 53.76 9.9072c17.664-12.1728 22.08-36.0576 9.888-53.76l-121.248-172.9536c-7.584-12.4992-17.8944-16.8768-31.4688-16.896zM617.3824 277.6704c-7.872-0.8256-13.3056 1.8816-20.3712 6.7584l-204.768 129.6c-17.664 12.1728-24.2496 34.4256-12.0576 52.0896 12.1728 17.6832 34.4256 24.2496 52.1088 12.0768l206.6496-129.8688c17.664-12.1728 24.2496-34.4256 12.0576-52.1088-7.5648-12.4992-20.0448-18.5088-33.6-18.5472zM813.3376-38.74559999999997l-587.5968-0.7872c-64.0704-0.6912-114.9696 51.0528-115.6608 115.1232L111.4048 691.968C110.7136 756.0576 162.4576 806.9376 226.528 807.6288l587.5968 0.7872c64.0704 0.6912 114.9696-51.0528 115.6608-115.1232l0.8448-614.7456c-1.4784-65.7216-53.2224-116.6016-117.312-117.312zM225.3568 730.2528c-19.5456-1.152-37.44-18.0096-38.4768-39.1872l0.864-614.7456c0.864-21.4464 17.7408-39.3408 39.168-38.4768l587.5968 0.7872c21.4464 0.864 39.3408 17.7408 38.4768 39.1872l-0.864 614.7456c0.768 19.2768-16.0896 37.1712-37.2864 38.208L225.376 730.2528z"  horiz-adv-x="1024" />

    
    <glyph glyph-name="target" unicode="&#59010;" d="M916.4375 427.7625h-44.6625a363.9375 363.9375 0 0 1-319.55625 319.5V791.98125a41.9625 41.9625 0 1 1-83.98125 0v-44.60625a364.1625 364.1625 0 0 1-319.5-319.6125H104.01875a42.01875 42.01875 0 0 1 0-84.0375h44.6625a364.10625 364.10625 0 0 1 319.55625-319.55625v-44.6625a42.01875 42.01875 0 0 1 84.0375 0v44.6625a364.10625 364.10625 0 0 1 319.55625 319.55625h44.6625a42.01875 42.01875 0 1 1-0.05625 84.0375z m-210.09375-84.0375h80.55a280.0125 280.0125 0 0 0-234.61875-234.73125v80.6625a42.01875 42.01875 0 0 1-84.0375 0v-80.6625a279.95625 279.95625 0 0 0-234.61875 234.73125h80.55a42.01875 42.01875 0 0 1 0 84.0375H233.50625A280.0125 280.0125 0 0 0 468.18125 662.4375v-80.60625a42.075 42.075 0 0 1 84.0375 0V662.49375a279.84375 279.84375 0 0 0 234.61875-234.675h-80.55a42.01875 42.01875 0 1 1 0.05625-84.09375zM510.25625 427.7625a42.01875 42.01875 0 1 1 0-84.0375 42.01875 42.01875 0 0 1 0 84.0375z"  horiz-adv-x="1024" />

    
    <glyph glyph-name="lock" unicode="&#58976;" d="M332 384V504c0 99.24 80.76 180 180 180s180-80.76 180-180v-120H332z m480 0V504c0 165.42-134.58 300-300 300S212 669.42 212 504v-120c-33 0-60-27-60-60v-300c0-33 27-60 60-60h600c33 0 60 27 60 60V324c0 33-27 60-60 60z"  horiz-adv-x="1024" />

    
    <glyph glyph-name="day" unicode="&#59200;" d="M842.274667 831.468444H180.992889c-52.423111 0-94.468444-50.313778-94.468445-111.819555v-670.921778c0-61.477333 42.045333-111.818667 94.468445-111.818667h661.280889c51.938667 0 94.468444 50.341333 94.468444 111.818667V719.648889c0.000889 61.506667-42.066667 111.819556-94.467555 111.819555z m0-782.741333H180.992889V607.828444h661.280889v-559.101333zM350.537778 137.53688899999997V507.797333h317.502222v-370.260444h-61.893333v28.171555h-193.715556v-28.171555h-61.893333z m255.609778 313.111111H412.431111v-84.516444h193.716445v84.516444zM412.431111 222.85777800000005h193.716445v87.735111H412.431111v-87.735111z"  horiz-adv-x="1024" />

    
    <glyph glyph-name="month" unicode="&#59201;" d="M842.274667 831.468444H180.992889c-52.423111 0-94.468444-50.313778-94.468445-111.819555v-670.921778c0-61.477333 42.045333-111.818667 94.468445-111.818667h661.280889c51.938667 0 94.468444 50.341333 94.468444 111.818667V719.648889c0.000889 61.506667-42.066667 111.819556-94.467555 111.819555z m0-782.741333H180.992889V607.828444h661.280889v-559.101333zM371.691556 131.45688900000005c-17.683556 15.832-35.100444 30.586667-52.247112 44.271111 23.979556 24.278222 39.151111 48.193778 45.515556 71.737778 6.360889 23.543111 9.544889 59.327111 9.544889 107.355555V511.376889h295.8v-300.636445c0-23.477333-4.958222-41.317333-14.871111-53.526222-9.914667-12.206222-23.680889-18.846222-41.295111-19.921778-17.617778-1.072-47.123556-1.408889-88.519111-1.006222a551.918222 551.918222 0 0 1-15.673778 61.978667c26.526222-1.610667 49.701333-2.415111 69.529778-2.415111 20.897778 0 31.347556 9.791111 31.347555 29.379555v28.976889H430.168c-3.215111-29.513778-9.614222-53.057778-19.190222-70.631111-9.579556-17.573333-22.676444-34.944889-39.286222-52.118222z m61.692444 177.080889h177.439111v47.088H433.986667c0-7.782222-0.200889-23.477333-0.602667-47.088z m177.439111 148.507555H433.986667v-47.088h176.836444v47.088z"  horiz-adv-x="1024" />

    
    <glyph glyph-name="week" unicode="&#59202;" d="M842.274667 831.468444H180.992889c-52.423111 0-94.468444-50.313778-94.468445-111.819555v-670.921778c0-61.477333 42.045333-111.818667 94.468445-111.818667h661.280889c51.938667 0 94.468444 50.341333 94.468444 111.818667V719.648889c0.000889 61.506667-42.066667 111.819556-94.467555 111.819555z m0-782.741333H180.992889V607.828444h661.280889v-559.101333zM415.925333 373.736889h79.978667v27.367111h-69.528889v38.635556h69.528889v27.769777H404.672V332.284444c0-88.006222-15.542222-155.751111-46.620444-203.241777-15.542222 14.221333-30.946667 27.099556-46.218667 38.636444 25.184889 36.755556 37.643556 93.501333 37.376889 170.24V514.1937780000001h344.028444V217.582222c0-25.892444-5.058667-45.442667-15.171555-58.657778-10.117333-13.211556-24.717333-20.154667-43.807111-20.827555-19.091556-0.669333-40.290667-0.870222-63.601778-0.603556-3.752 19.317333-7.770667 37.296-12.056889 53.928889 12.324444-1.075556 26.124444-1.609778 41.396444-1.609778 19.156444 0 30.242667 3.352 33.256889 10.060445 3.014222 6.706667 4.521778 13.816 4.521778 21.330667V467.508444H548.151111v-27.769777h69.528889v-38.635556h-69.528889v-27.367111h79.174222v-39.440889H415.925333v39.441778z m19.290667-63.186667h172.014222v-108.261333H486.257778v-19.720889h-51.041778v127.982222z m120.973333-70.430222V272.72H486.257778v-32.6h69.931555z"  horiz-adv-x="1024" />

    
    <glyph glyph-name="manage" unicode="&#59556;" d="M875.40136719 318.08203125l-33.68847656 23.34375a334.546875 334.546875 0 0 1 0 72.83496094L875.40136719 437.61328125a84.90234375 84.90234375 0 0 1 29.82128906 115.13671875l-45.97558594 79.63769531a84.96386719 84.96386719 0 0 1-114.609375 31.72851563l-37.0546875-17.49902344a331.65527344 331.65527344 0 0 1-63.08789062 36.48339844l-3.36621094 40.77246093a84.90234375 84.90234375 0 0 1-84.78808594 83.39062501H464.38964844a84.90234375 84.90234375 0 0 1-84.78808594-83.390625l-3.36621094-40.77246094a331.6640625 331.6640625 0 0 1-63.08789062-36.48339844l-37.04589844 17.47265625a84.96386719 84.96386719 0 0 1-114.609375-31.72851562L115.5078125 552.75a84.89355469 84.89355469 0 0 1 29.83007813-115.13671875l33.68847656-23.34375a334.546875 334.546875 0 0 1 0-72.83496094L145.32910156 318.08203125a84.90234375 84.90234375 0 0 1-29.82128906-115.13671875l45.97558594-79.63769531a84.96386719 84.96386719 0 0 1 114.609375-31.72851563l37.0546875 17.49902344a331.62011719 331.62011719 0 0 1 63.08789062-36.48339844l3.36621094-40.77246093a84.90234375 84.90234375 0 0 1 84.78808594-83.39062501h91.95117187a84.90234375 84.90234375 0 0 1 84.78808594 83.390625l3.36621094 40.77246094a331.65527344 331.65527344 0 0 1 63.08789062 36.48339844l37.0546875-17.49902344a84.96386719 84.96386719 0 0 1 114.609375 31.72851563L905.22265625 202.9453125a84.90234375 84.90234375 0 0 1-29.82128906 115.13671875zM510.36523437 216.12890625c-89.18261719 0-161.71875 72.55371094-161.71874999 161.71875s72.5625 161.71875 161.71874999 161.71875 161.71875-72.5625 161.71875001-161.71875-72.53613281-161.71875-161.71875001-161.71875z"  horiz-adv-x="1024" />

    
    <glyph glyph-name="android" unicode="&#58975;" d="M871.56484813 527.5151512499999c13.28606063 0 24.53090906-4.17212156 33.84-12.60484781C914.61818188 506.5672725 919.27272687 496.29333375 919.27272687 484.07272688v-255.90424219c0-11.53939406-4.654545-21.52484813-13.86787874-29.96242407-9.20969719-8.33818219-20.55393938-12.60363656-33.84-12.60363656h-15.61090875c-13.28606063 0-24.53575781 4.16606063-33.84484875 12.60363657-9.214545 8.33818219-13.86909094 18.328485-13.86909094 29.96242406V484.17212156c0 12.12121219 4.654545 22.39515187 13.86909094 30.83272688 9.21333375 8.33818219 20.55878812 12.60969656 33.84484875 12.60969656h15.61090875v-0.09939375z m-703.5187875 0c13.28606063 0 24.24242437-4.17212156 32.97333375-12.60484781 8.62787906-8.34303 12.99272719-18.61696969 12.99272718-30.83757656v-255.90424219c0-11.53939406-4.36484812-21.52484813-12.99272718-29.96242407-8.63151469-8.33818219-19.68727313-12.60363656-32.97333375-12.60363656H152.43515187c-13.28606063 0-24.53090906 4.16606063-33.84 12.60363657C109.38181812 206.54424281000001 104.72727313 216.53454562000002 104.72727313 228.16848469V484.17212156c0 12.12121219 4.654545 22.39515187 13.86787874 30.83272688 9.20969719 8.33818219 20.55393938 12.60969656 33.84 12.60969656h15.61090875v-0.09939375z m478.84000031 201.31151531c10.37454562-4.654545 21.23636344-10.9612125 32.48121187-19.10545406 11.24969719-8.04969656 22.111515-17.64727313 32.48606063-28.60848563 10.37818219-10.95636375 19.49333344-22.97818219 27.34787906-35.974545 7.85575781-12.99272719 13.47636375-26.76121219 16.87030219-41.21212124H263.46787906c9.20969719 30.64363594 23.854545 55.85697 43.83030281 75.44484843 19.97697 19.58787844 40.04727281 35.29333313 60.3127275 46.83757594l-44.21939437 69.42666656c-1.15999969 1.16484844-1.25939437 3.30060563-0.38787844 6.4957575 0.87636375 3.20121188 3.88242469 6.50181844 9.12 9.99030282 4.65333375 4.07272688 8.92000031 5.91393937 12.991515 5.62545468 4.07272688-0.29333344 6.69090937-0.97090875 7.85575781-2.13575718L398.06060563 744.43757531c16.19272687 7.56121219 33.26181844 13.28606063 51.19757625 17.35757625 17.94060562 4.07151469 36.46303031 6.10787906 55.56363656 6.10787906 39.37090875 0 76.02787875-8.1442425 110.16121219-24.24242437l45.96121218 72.04969687c1.16484844 1.15999969 3.30060563 1.74303 6.4957575 1.74303 3.20121188 0 7.95515156-1.74303 14.35151438-5.23636312 5.81939437-2.90787844 9.12-5.52606094 9.99030375-7.85575781 0.871515-2.32484812 0.67757531-4.07151469-0.38787938-5.23151532l-44.50787812-70.30303031zM404.85090875 654.15757594c7.56121219 0 13.86303 2.61818156 19.09939406 7.85575781 5.23757531 5.23636406 7.85575781 11.53818188 7.85575781 19.09939312 0 7.56727313-2.61818156 13.86909094-7.85575781 19.105455-5.23636406 5.23636406-11.53818188 7.85575781-19.09939406 7.85575782-7.56727313 0-13.86909094-2.61939375-19.10545406-7.85575782s-7.85575781-11.53818188-7.85575782-19.105455c0-7.56121219 2.61939375-13.86303 7.85575782-19.09939312 5.23636406-5.23757531 11.63757563-7.85575781 19.10545406-7.85575781z m213.42787875 3.48969656c7.56606094 0 13.86787875 2.61818156 19.10424281 7.85575781 5.23757531 5.23636406 7.85575781 11.53818188 7.85575782 19.10424281 0 7.56242437-2.61818156 13.86424219-7.85575782 19.10060532-5.23636406 5.23636406-11.53818188 7.85575781-19.10424281 7.85575781-7.56242437 0-13.86909094-2.61939375-19.10060531-7.85575781-5.23636406-5.23636406-7.85575781-11.53818188-7.85575781-19.10060532 0-7.56606094 2.61939375-13.86787875 7.85575781-19.10424281 5.23151531-5.23757531 11.53818188-7.85575781 19.10060531-7.85575781z m137.89212188-108.40848469l0.871515-390.40242375c0-12.7042425-4.17090937-23.46666656-12.60363657-32.09818219-8.43757594-8.62666687-18.62303062-12.99272719-30.74424281-12.99272718h-12.12121125v-121.40606063c0-11.53818188-4.16606063-21.72363656-12.60363656-30.35030344-8.33818219-8.63151469-18.61696969-12.99757594-30.83757563-12.99757593H633.01818219c-11.53939406 0-21.52969687 4.36606031-29.962425 12.99757593-8.34303 8.62666687-12.60848531 18.81212156-12.60848438 30.35030344V113.74545468999997H430.93454562v-121.40606063c0-11.53818188-4.17090937-21.72363656-12.60848531-30.35030343-8.33818219-8.63151469-18.61818188-12.99757594-30.83393906-12.99757594h-25.11757594c-11.53939406 0-21.52484813 4.36606031-29.96242406 12.99757594-8.33818219 8.62666687-12.60484875 18.81212156-12.60484875 30.35030343V113.74545468999997h-9.5018175c-12.12121219 0-22.40121187 4.36606031-30.83878875 12.99272719-8.33818219 8.63151469-12.60363656 19.39393969-12.60363563 32.09818218V549.2387878100001h489.30787875z m0 0"  horiz-adv-x="1024" />

    
    <glyph glyph-name="receive" unicode="&#58902;" d="M471.77177276 707.7732044100001H337.72330128c-9.26164951 0-16.37970205 2.12723437-21.33779415 6.4144283a33.92120126 33.92120126 0 0 0-10.43981016 16.2815221 76.76042256 76.76042256 0 0 0-2.97812812 22.20505134c0 8.23075927 0.65453378 15.95425518 1.99632744 23.20321466 0.65453378 7.232596 1.97996396 15.1197249 3.95992793 23.67775106 1.99632742 8.55802617 4.81082167 15.79062217 8.44348271 21.7141506 3.64902451 5.92352842 8.44348272 9.86709375 14.39973897 11.84705683 5.95625537 1.96360049 13.25430441 0.32726689 21.84505664-4.94172774 9.93254677-5.92352842 21.19052375-12.33795761 33.75756828-19.24328674 12.583408-6.9053291 24.82318476-13.81065819 36.75205898-20.73234988 11.91251074-6.9053291 22.9904912-13.15612441 33.25030486-18.75238682 10.27617714-5.57989893 18.04876259-10.03072675 23.33412071-13.31975742 6.62715263-4.59809824 11.58524385-9.70345988 14.89063884-15.29972226 3.32175762-5.57989893 4.64718867-10.84889355 3.97629144-15.79062217-0.65453378-4.92536513-3.30539414-9.03256347-7.93621934-12.33795677-4.63082519-3.27266809-11.25797695-4.92536513-19.86509355-4.92536509z m77.46404589 0.98179979h133.05030819c9.26164951 0 16.37970205 2.12723437 21.35415764 6.41442919 4.95809209 4.28719483 8.44348272 9.70345988 10.42344667 16.28152208 1.97996396 6.59442567 2.97812722 13.99065469 2.97812725 22.20505051 0 8.23075927-0.32726689 15.97061865-0.98179981 23.20321461-1.34179365 7.232596-2.83085771 14.97245537-4.48355478 23.18685118a64.50428144 64.50428144 0 0 1-7.93621933 21.2232507c-3.64902451 5.92352842-8.44348272 9.86709375-14.3997381 11.84705683-5.95625537 1.96360049-13.25430441 0.65453378-21.84505752-3.95992793-9.93254677-5.90716494-21.19052375-12.32159413-33.75756826-19.24328586-12.583408-6.9053291-25.00318213-13.81065819-37.24295889-20.71598728-12.23977763-6.9053291-23.49775459-13.15612441-33.75756825-18.75238594-10.25981366-5.5962615-17.70513223-10.03072675-22.35232091-13.31975832-7.28168555-4.61446174-12.56704453-9.71982334-15.87243867-15.29972137-3.32175762-5.5962615-4.64718867-10.86525701-3.97629141-15.79062218 0.65453378-4.94172862 3.30539414-9.04892608 7.93621935-12.33795761 4.63082519-3.28903153 11.58524385-4.94172862 20.86325683-4.94172861z m-91.3565206-65.1260883H169.91726065c-21.19052375 0-34.91936544-3.46902803-41.2192503-10.37435711C122.4144881 626.3492297 119.27272697 615.3367031299999 119.27272697 600.20061474v-86.85660324c0-16.44515596 3.46902803-28.61947969 10.42344753-36.52297205 6.95441865-7.88712891 20.68326035-11.83069424 41.20288684-11.83069424h286.98023671V643.62891593z m108.22712343 0h283.98574512c21.19052375 0 35.59026182-4.12356182 43.19921515-12.3379576 7.60895244-8.23075927 11.42161083-19.9141831 11.42160995-35.05027149v-84.87663925c0-15.79062217-3.46902803-27.45768253-10.42344668-35.01754453-6.95441865-7.57622549-20.68326035-11.35615693-41.20288682-11.35615782H566.10642148V643.62891593z m-108.22712343-230.95216492H153.03029521v-373.05139835c0-33.5612083 9.60527989-59.56255372 28.79947617-77.97131016C201.02396854-56.77107656999999 230.82160801-65.98363653000001 271.18996542-65.98363653000001h186.68933263V412.67675097z m108.22712343 0h303.86720215v-370.10599806c-0.67089727-33.54484482-10.27617714-60.03709013-28.79947617-79.44400985C822.61812059-56.28017666000005 793.14774805-65.98363653000001 752.77939062-65.98363653000001H566.10642148V412.67675097z"  horiz-adv-x="1024" />

    
    <glyph glyph-name="approve" unicode="&#59203;" d="M676.571 337.28599999999994c-109.694 109.714-30.777 98.743 10.8 163.727 24.029 33.158 45.103 80.884 43.886 132.501C731.257 743.23 633.673 831 511.83 831 389.927 831 292.4 743.229 292.4 633.514c0-47.418 12.63-97.895 41.981-132.5C380.503 436.028 459.44 447 347.43 337.28499999999997H248c-66.274 0-120-53.726-120-120V63h768V217.28599999999994c0 66.274-53.726 120-120 120h-99.429zM128-1h768v-63H128z"  horiz-adv-x="1024" />

    
    <glyph glyph-name="turnoff" unicode="&#58886;" d="M141.21142578 383.95181414a370.74038836 370.74038836 0 0 1 370.74038836-370.74038836h486.86780458a370.74038836 370.74038836 0 0 1 0 741.38440573H511.95181414A370.74038836 370.74038836 0 0 1 141.21142578 383.95181414z m33.82632611 0.77097083a336.43220583 336.43220583 0 1 0 336.43220584-336.23946384A336.43220583 336.43220583 0 0 0 175.03775189 384.91552768z"  horiz-adv-x="1696" />

    
    <glyph glyph-name="email" unicode="&#58891;" d="M151.11111125 519.1111115599999c10.66666687-8.88888844 44.44444406-31.99999969 101.33333344-71.11111125s99.55555594-69.33333375 129.77777718-90.66666656c3.55555594-1.7777775 10.66666687-7.11111094 21.33333376-16.00000031 10.66666687-7.11111094 19.55555531-14.22222188 26.66666625-19.55555532 7.11111094-5.33333344 16.00000031-10.66666687 26.66666718-16.00000031 10.66666687-5.33333344 19.55555531-10.66666687 28.44444469-14.22222187 8.88888844-3.55555594 17.77777781-5.33333344 24.88888875-5.33333344h1.7777775c7.11111094 0 16.00000031 1.7777775 24.88888875 5.33333344 10.66666687 3.55555594 19.55555531 7.11111094 28.44444469 14.22222187 10.66666687 5.33333344 19.55555531 10.66666687 26.66666625 16.00000031 7.11111094 5.33333344 16.00000031 10.66666687 26.66666719 19.55555532 10.66666687 7.11111094 17.77777781 12.44444437 21.33333281 16.00000031 30.22222219 21.33333375 108.44444438 74.66666625 232.88888906 161.77777781 23.11111125 16.00000031 44.44444406 37.33333312 60.44444438 60.44444438 16.00000031 23.11111125 24.88888875 49.7777775 24.88888875 74.66666625 0 21.33333375-7.11111094 40.88888906-23.11111032 56.88888937-16.00000031 16.00000031-33.77777812 23.11111125-56.88888937 23.11111031H145.77777781c-26.66666625 0-46.2222225-7.11111094-60.44444437-24.88888875-14.22222188-17.77777781-21.33333375-39.11111156-21.33333375-63.99999937 0-21.33333375 8.88888844-44.44444406 26.66666719-67.55555625 19.55555531-26.66666625 39.11111156-44.44444406 60.44444437-58.66666594zM908.44444437 465.77777812c-108.44444438-74.66666625-192-131.55555563-248.88888843-172.44444468-19.55555531-14.22222188-33.77777812-24.88888875-46.2222225-31.99999969-12.44444437-7.11111094-26.66666625-16.00000031-48-23.11111125-17.77777781-8.88888844-35.55555562-14.22222188-53.33333344-14.22222281s-35.55555562 3.55555594-55.11111094 12.44444437c-19.55555531 8.88888844-35.55555562 16.00000031-46.2222225 23.11111125-16.00000031 10.66666687-30.22222219 21.33333375-46.2222225 32.00000063-44.44444406 31.99999969-127.99999969 90.66666656-247.11111093 172.44444375-17.77777781 12.44444437-35.55555562 26.66666625-49.77777751 42.66666656v-396.44444437c0-21.33333375 7.11111094-40.88888906 23.11111125-56.88888844 16.00000031-16.00000031 33.77777812-23.11111125 56.88888844-23.11111125h734.22222282c21.33333375 0 40.88888906 8.88888844 56.88888843 23.11111125 16.00000031 14.22222188 23.11111125 35.55555562 23.11111125 56.88888843V508.44444469c-17.77777781-16.00000031-35.55555562-30.22222219-53.33333343-42.66666656z"  horiz-adv-x="1024" />

    
    <glyph glyph-name="d-arrow-right" unicode="&#58887;" d="M779.99062832 389.18054004l-270.46513201-270.46513201a63.74173069 63.74173069 0 1 1 90.14264017-90.142641L915.19528632 344.09991771a63.74173069 63.74173069 0 0 1 0 90.14264016l-315.5085445 315.45272845a63.70451999 63.70451999 0 0 1-90.14264016 0 63.77894138 63.77894138 0 0 1 0-90.14264017L779.99062832 389.18054004zM379.23263501 389.18054004l-270.44652668-270.46513201a63.74173069 63.74173069 0 1 1 90.14264018-90.142641L514.45589834 344.09991771a63.74173069 63.74173069 0 0 1 0 90.14264016l-315.50854449 315.45272845a63.74173069 63.74173069 0 1 1-90.14264017-90.14264016L379.23263501 389.18054004z"  horiz-adv-x="1024" />

    
    <glyph glyph-name="all" unicode="&#58979;" d="M183.84615372 834h171.69230742C422.83076943 834 477.38461573 779.44615371 477.38461573 712.15384628v-171.69230742A121.84615371 121.84615371 0 0 0 355.53846114 418.61538427H183.84615372A121.84615371 121.84615371 0 0 0 62 540.46153886V712.15384628C62 779.44615371 116.55384629 834 183.84615372 834z m-1e-8-484.61538427h171.69230743C422.83076943 349.38461572999995 477.38461573 294.83076943000003 477.38461573 227.53846113999998v-171.69230743A121.84615371 121.84615371 0 0 0 355.53846114-66H183.84615372A121.84615371 121.84615371 0 0 0 62 55.84615371999996V227.53846113999998C62 294.83076943000003 116.55384629 349.38461572999995 183.84615372 349.38461572999995z m484.61538516 484.61538427h171.69230742C907.44615371 834 962 779.44615371 962 712.15384628v-171.69230742A121.84615371 121.84615371 0 0 0 840.15384628 418.61538427H668.46153886A121.84615371 121.84615371 0 0 0 546.61538427 540.46153886V712.15384628C546.61538427 779.44615371 601.16923057 834 668.46153886 834z m0-484.61538427h171.69230742c67.29230742 0 121.84615371-54.55384629 121.84615371-121.84615459v-171.69230742A121.84615371 121.84615371 0 0 0 840.15384628-66H668.46153886A121.84615371 121.84615371 0 0 0 546.61538427 55.84615371999996V227.53846113999998C546.61538427 294.83076943000003 601.16923057 349.38461572999995 668.46153886 349.38461572999995z"  horiz-adv-x="1024" />

    
    <glyph glyph-name="s-status" unicode="&#58907;" d="M824.48 695.76C740.6 779.8199999999999 629.09 825.9 510.47 825.9 391.76 825.9 280.43 779.64 196.46 695.76 112.49 611.97 66.32 500.46 66.32 381.75c0-118.62 46.26-230.04 130.14-314.01 83.79-83.97 195.3-130.14 314.01-130.14 118.62 0 230.04 46.26 314.01 130.14 83.97 83.79 130.14 195.3 130.14 314.01-0.09 118.71-46.35 230.04-130.14 314.01zM731.87 498.48l-223.2-279.72c-6.48-8.01-15.93-13.05-26.28-13.95-1.08-0.18-2.34-0.36-3.42-0.36-9.09 0-18.09 3.24-24.84 9.27L293.66 353.03999999999996c-15.75 13.59-17.37 37.17-3.42 52.56 13.77 15.39 37.53 17.01 53.28 3.42l130.5-113.13 198.72 248.94c12.87 16.11 36.63 18.9 52.92 6.12 16.38-12.78 19.26-36.18 6.21-52.47z"  horiz-adv-x="1024" />

    
    <glyph glyph-name="transfer" unicode="&#58893;" d="M365.71428598 164.57142900999997v-82.486858a63.79885699 63.79885699 0 0 0-108.90971497-45.11085702l-130.304 130.304a73.17942901 73.17942901 0 0 0-53.211428 75.28228602A63.79885699 63.79885699 0 0 0 136.94171402 310.85714300999996h740.79085699a73.14285699 73.14285699 0 1 0 0-146.285714H365.71428598z m292.57142804 438.857142v82.48685798a63.79885699 63.79885699 0 0 0 108.90971497 45.11085702l130.304-130.304a73.17942901 73.17942901 0 0 0 53.211428-75.282286A63.79885699 63.79885699 0 0 0 887.05828598 457.14285699H146.26742899a73.14285699 73.14285699 0 1 0 0 146.285714h512z"  horiz-adv-x="1024" />

    
    <glyph glyph-name="search" unicode="&#58918;" d="M450.3686427 64.89957212000002C238.23172443 64.89957212000002 65.39596156 237.73533500999997 65.39596156 450.3188573 65.39596156 662.45577556 238.23172443 835.29153844 450.3686427 835.29153844s384.97268114-172.83576287 384.97268113-384.97268114c0.44660404-212.5835223-172.38915885-385.41928518-384.97268113-385.41928518z m0 681.07115864C287.35816867 745.97073076 154.71676924 613.3293313300001 154.71676924 450.3188573s132.64139942-295.65187346 295.65187346-295.65187346 295.65187346 132.64139942 295.65187345 295.65187346S613.82572078 745.97073076 450.3686427 745.97073076zM913.9436346-57.916538439999954c-11.611705 0-22.77680596 4.46604038-31.70888673 12.9515171l-221.9622071 221.96220712c-17.4175575 17.4175575-17.4175575 45.55361192 0 62.97116942 17.4175575 17.4175575 45.55361192 17.4175575 62.97116942 0L945.20591728 18.00614810000002c17.4175575-17.4175575 17.4175575-45.55361192 0-62.97116943-8.48547673-8.48547673-19.6505777-12.95151712-31.26228268-12.95151711z"  horiz-adv-x="1024" />

    
    <glyph glyph-name="alloc" unicode="&#58909;" d="M950.784 237.56799999999998h-36.352V384h-365.568v73.216h109.568c40.448 0 73.216 32.768 73.216 73.216v146.432c0 40.448-32.768 73.216-73.216 73.216h-292.352c-40.448 0-73.216-32.768-73.216-73.216v-146.432c0-40.448 32.768-73.216 73.216-73.216h109.568V384h-365.568v-146.432h-36.352c-40.448 0-73.216-32.768-73.216-73.216v-73.216c0-40.448 32.768-73.216 73.216-73.216h146.432c40.448 0 73.216 32.768 73.216 73.216v73.216c0 40.448-32.768 73.216-73.216 73.216h-36.352v73.216H476.16v-73.216h-36.352c-40.448 0-73.216-32.768-73.216-73.216v-73.216c0-40.448 32.768-73.216 73.216-73.216h146.432c40.448 0 73.216 32.768 73.216 73.216v73.216c0 40.448-32.768 73.216-73.216 73.216h-36.352v73.216H841.216v-73.216H804.352c-40.448 0-73.216-32.768-73.216-73.216v-73.216c0-40.448 32.768-73.216 73.216-73.216h146.432c40.448 0 73.216 32.768 73.216 73.216v73.216c0 40.448-32.768 73.216-73.216 73.216z"  horiz-adv-x="1024" />

    
    <glyph glyph-name="arrow-left" unicode="&#58949;" d="M702.56939521-66c-16.01423526 0-32.02846963 6.40569375-44.839858 19.21708213L273.38790078 343.96441317999995c-25.62277588 25.62277588-25.62277588 64.05693925 0 89.67971514L644.91814971 811.58007099c25.62277588 25.62277588 64.05693925 25.62277588 89.67971513 0 25.62277588-25.62277588 25.62277588-64.05693925 0-89.67971513L407.90747305 388.80427031l339.50177929-345.90747304c25.62277588-25.62277588 25.62277588-67.25978614 0-89.67971514-12.8113875-12.8113875-28.82562276-19.21708213-44.83985713-19.21708213z"  horiz-adv-x="1024" />

    
    <glyph glyph-name="task" unicode="&#58956;" d="M397.4375 709.03125h228.84375c21.5625 0 39 17.4375 39 39V805.875h-306.5625v-57.84375c-0.09375-21.46875 17.25-38.90625 38.71875-39zM792.21875 805.875h-55.59375v-103.21875c0-36.09375-29.25-65.34375-65.34375-65.34375h-318.75c-36 0.09375-65.25 29.34375-65.25 65.34375V805.875h-55.5c-62.4375 0-113.0625-50.625-113.0625-113.0625v-617.71875c0-62.4375 50.625-113.0625 113.0625-113.0625h560.34375c62.4375 0 113.0625 50.625 113.0625 113.0625V692.8125C905.1875 755.25 854.65625 805.875 792.21875 805.875zM601.25 208.21875h-280.3125c-19.40625 0.84375-34.40625 17.25-33.65625 36.65625v6.46875c-1.3125 19.40625 13.40625 36.09375 32.71875 37.40625H599.9375c19.40625-0.84375 34.40625-17.25 33.65625-36.65625v-0.84375l0.375-5.625c1.3125-19.3125-13.40625-36.09375-32.71875-37.40625z m135.9375 161.15625H324.78125c-20.625 0.09375-37.3125 16.78125-37.40625 37.40625v5.8125c0.09375 20.625 16.78125 37.3125 37.40625 37.40625h411.84375c20.625-0.09375 37.3125-16.78125 37.40625-37.40625l0.5625-5.8125c-0.09375-20.53125-16.78125-37.3125-37.40625-37.40625z"  horiz-adv-x="1024" />

    
    <glyph glyph-name="circle-edit" unicode="&#59009;" d="M512-66C263.4758624-66 62 135.47586239999998 62 384S263.4758624 834 512 834 962 632.5241376 962 384 760.5241376-66 512-66zM317.63103418 252.94137949000003c-5.67931026-8.72068974-8.56551709-23.5241376-6.85862051-33.39310342l15.05172393-85.81034531c1.76896582-9.96206924 11.23448291-15.61034443 21.19655214-12.81724102l86.27586241 24.51724102c10.0241376 2.85517266 22.56206924 12.0413795 28.08620683 20.5758624l170.84482735 264.56896582a17.53448291 17.53448291 0 0 1 2.4827581 13.77931026 18.06206924 18.06206924 0 0 1-8.41034443 11.3586205l-111.87931026 67.59310342a19.14827607 19.14827607 0 0 1-14.18275898 2.32758633 18.62068974 18.62068974 0 0 1-11.7-8.16206923l-170.93793076-264.53793077h0.03103418z m213.36206924 330.39310342a17.68965557 17.68965557 0 0 1-2.51379316-13.81034531 18.21724102 18.21724102 0 0 1 8.37931025-11.42068975l111.87931025-67.59310342a19.2413795 19.2413795 0 0 1 14.27586241-2.32758545 18.71379316 18.71379316 0 0 1 11.7 8.19310342l36.06206923 55.86206836a17.68965557 17.68965557 0 0 1 2.48275811 13.77931026 18.21724102 18.21724102 0 0 1-8.37931025 11.38965556L593.03103418 645a19.2413795 19.2413795 0 0 1-14.27586152 2.32758633 18.71379316 18.71379316 0 0 1-11.7-8.19310342L530.99310342 583.2413795v0.12413759z"  horiz-adv-x="1024" />

    
    <glyph glyph-name="time" unicode="&#59212;" d="M504.201383 807.633417c-184.479595 0-342.401324-115.460662-405.584341-277.868566-13.929244-35.804461-23.344684-73.842799-27.322276-113.483634a438.508195 438.508195 0 0 1-2.200108-43.755549c0-115.113761 45.016263-219.851197 118.26759-297.751405 47.812959-50.849108 107.661022-90.194208 174.97922-113.483634 44.497447-15.393595 92.193749-23.871687 141.858892-23.871687 49.665143 0 97.362468 8.477069 141.858892 23.871687 67.318198 23.289426 127.167285 62.634526 174.97922 113.483634 73.249281 77.900208 118.267591 182.637644 118.26759 297.751405 0.002047 239.919255-195.186448 435.107749-435.104679 435.107749zM701.733249 107.030921c-9.073656-9.066493-21.120017-14.051017-33.936927-14.051017a47.672766 47.672766 0 0 0-33.92567 14.051017L466.767819 274.127613c-5.492084 5.503341-9.395998 12.001335-11.918447 19.848048-0.399089 1.257643-0.701988 2.537799-1.164522 4.587481-0.26606 1.302669-0.450255 2.63092-0.718361 4.727675a48.412616 48.412616 0 0 0-0.241501 4.817725V604.09679c0 26.457582 21.521153 47.975664 47.968502 47.975665 26.468838 0.002047 47.997154-21.518083 47.997154-47.977711v-36.08587h-0.002047v-240.079914l153.045675-153.034418c9.057283-9.064446 14.040784-21.122063 14.040785-33.94409 0-12.824073-4.986571-24.869411-14.041808-33.919531z"  horiz-adv-x="1024" />

    
    <glyph glyph-name="business" unicode="&#59252;" d="M512 834a450 450 0 0 0 450-450 450 450 0 1 0-450 450z m31.8375-754.5375v78.8625c78.75 8.60625 136.40625 56.08125 136.40625 131.45625 0 75.65625-42.91875 108-134.15625 129.99375-7.25625 1.74375-14.175 3.375-28.0125 6.46875-67.3875 15.4125-88.93125 27.3375-88.93125 56.25 0 40.78125 28.6875 60.1875 77.45625 60.1875 52.2 0 78.58125-20.75625 84.09375-70.14375l1.125-10.0125h75.7125l-0.28125 11.53125c-2.08125 79.0875-48.0375 124.875-123.4125 135.3375V688.5375h-63.5625v-79.2c-74.25-10.8-125.60625-56.86875-125.60625-128.98125 0-71.04375 40.6125-98.6625 134.26875-120.0375l16.59375-3.7125c76.275-17.1 100.2375-30.54375 100.2375-66.76875 0-43.48125-34.25625-64.51875-88.3125-64.51875-60.75 0-97.03125 27.7875-97.03125 83.98125v11.25H343.8125v-11.25c0-86.34375 52.03125-137.5875 136.40625-150.525v-79.3125h63.61875z"  horiz-adv-x="1024" />

    
    <glyph glyph-name="my-task" unicode="&#59012;" d="M124.66087 637.773913l171.408695-171.408696 171.408696 171.408696-171.408696 171.408696-171.408695-171.408696zM82.365217 680.069565L253.773913 851.478261C278.26087 875.965217 316.104348 875.965217 340.591304 851.478261L512 680.069565c24.486957-24.486957 24.486957-62.330435 0-86.817391l-171.408696-171.408696c-24.486957-24.486957-62.330435-24.486957-86.817391 0l-171.408696 171.408696c-24.486957 24.486957-24.486957 62.330435 0 86.817391zM894.886957-72.34782600000005H614.4c-28.93913 0-53.426087 24.486957-53.426087 53.426087V281.6c0 28.93913 24.486957 53.426087 53.426087 53.426087h282.713043c28.93913 0 53.426087-24.486957 53.426087-53.426087v-300.521739c0-28.93913-24.486957-53.426087-55.652173-53.426087zM906.017391 419.617391H625.530435c-28.93913 0-53.426087 24.486957-53.426087 53.426087V775.791304c0 28.93913 24.486957 53.426087 53.426087 53.426087h282.713043c28.93913 0 53.426087-24.486957 53.426087-53.426087v-300.521739c0-31.165217-24.486957-55.652174-55.652174-55.652174zM438.53913-72.34782600000005H155.826087c-28.93913 0-53.426087 24.486957-53.426087 53.426087V281.6c0 28.93913 24.486957 53.426087 53.426087 53.426087h282.713043c28.93913 0 53.426087-24.486957 53.426087-53.426087v-300.521739c0-28.93913-24.486957-53.426087-53.426087-53.426087z"  horiz-adv-x="1024" />

    
    <glyph glyph-name="credit" unicode="&#59469;" d="M738.3 190c-12.9 91-83.3 166.1-175 187.1-20 4.6-19.7 4.6-20.2 24.9-0.2 9 1.1 16.2 8.5 23.1 28.3 26.6 55.8 54.2 83.8 81.1 4.5 4 6.9 9.8 6.5 15.8-0.2 99.1-0.1 198.2-0.1 297.2V831.3H380.6c-0.3-2.2-0.5-3.2-0.5-4.2 0-102.7-0.1-205.5 0.1-308.3 0-4 2.8-8.8 5.8-11.8 26.1-26 52.2-52 79.2-77 10-9.3 14.7-18.6 13.7-32.2-1.2-16.9-0.3-17-17.4-20.4C346.3 354.29999999999995 265.5 241 283.7 128 304 2.3999999999999773 421.1-80.70000000000005 549.2-60.299999999999955 670.6-40.89999999999998 755.3 71.20000000000005 738.3 190z m-68.7-2.7c-25-20.3-50-40.4-75.3-60.4-5.8-4.5-7.6-8.6-5.4-16.1 8.5-30.1 16.3-60.5 23.9-90.9 1-3.7 1.9-10.3-0.8-12-2.8-1.6-7.9 1.3-11 3.2-27.3 16.6-54.4 33.4-81.3 50.6-6.5 4.2-11.1 3.8-17.4-0.3-27.5-17.5-55.2-34.7-83.1-51.6-2.5-1.6-6.2-3.5-9.3-1.5-3.1 1.9-1.9 3.7-2.4 5.1l15.4 59c3.4 12.9 6.3 25.9 10.4 38.6 2.2 7 0.5 11-5.1 15.4-25 19.7-49.8 39.7-74.5 59.8-3 2.5-8.1 6.2-6.7 10.1 1.4 3.8 7.8 3.6 11.9 3.8 33.1 2.3 66.2 3.9 99.3 6.4 3.2 0.3 7.5 4.1 8.8 7.2 12.4 29.6 24.1 59.5 36.4 89.1 1.5 3.6 2.8 9.3 7.8 9.3 4.9 0 6.1-6 7.6-9.6 12.1-29.3 24.1-58.7 35.6-88.3 2.3-5.8 5.2-8 11.7-8.3 33.5-1.6 67-3.8 100.4-6 2.9-0.2 7.7-1.2 8.5-4 0.8-3-2.9-6.5-5.4-8.6zM327.3 564.2c5.6-5.5 11.4-10.9 18.3-17.5V831.1c-41.8 3.9-64.2-15.8-64.2-55.4 0.1-47.7 0.1-95.4-0.1-143-0.6-15.6 5.9-30.7 17.6-41 9.7-8.9 18.9-18.4 28.4-27.5z m412.8 63.1c0.7 52.6 0.9 105.4 0.2 158-0.4 31.9-32.8 53.9-64.1 44.8v-279.4c18.3 16.7 37.9 33.3 55.4 51.6 5.6 5.9 8.4 16.5 8.5 25z m0 0"  horiz-adv-x="1024" />

    
    <glyph glyph-name="apply-for" unicode="&#59513;" d="M329.3 650.7c-0.1-29.8-24.2-54-54.1-54.1h-2.5c-29.8 0.1-54 24.2-54.1 54.1v79.6c0.1 29.8 24.2 54 54.1 54.1h2.5c29.8-0.1 54-24.2 54.1-54.1v-79.6z m475.9 0c-0.1-29.8-24.2-54-54.1-54.1h-2.5c-29.8 0.1-54 24.2-54.1 54.1v79.6c0.1 29.8 24.2 54 54.1 54.1h2.5c29.8-0.1 54-24.2 54.1-54.1v-79.6z m0 0M885.1 671.2c-22.6 0-41.2-27.2-41.2-60.5s-30.2-60.4-67-60.4h-53.7c-36.9 0-67 27.2-67 60.4 0 33.3-30.2 60.5-67 60.5H434.9c-36.9 0-67-27.2-67-60.5s-30.2-60.4-67-60.4h-53.7c-36.9 0-67 27.2-67 60.4 0 33.3-18.5 60.5-41.2 60.5-22.6 0-41.2-30.2-41.2-67v-553.5c0.1-37 30.1-66.9 67-67h694.5c37 0.1 66.9 30.1 67 67V604.2c0 36.8-18.5 67-41.2 67zM718.5 403.7L489.3 126.4c-13.4-16-37-18.4-53.4-5.5L311 220.6c-16.2 13-18.8 36.6-5.9 52.8l2.9 3.7c13 16.2 36.6 18.8 52.9 5.9l63.5-50.7c16.4-12.9 40-10.4 53.4 5.5L657 454.6c13.3 16 36.9 18.2 52.9 5l3.6-3c16-13.2 18.2-36.9 5-52.9z m0 0"  horiz-adv-x="1024" />

    
    <glyph glyph-name="activation" unicode="&#59041;" d="M474.49999971 712.12499971c-168.75 0-307.50000029-136.87499971-307.49999942-307.49999942 0-146.25 103.12499971-268.12500029 238.12499971-300.00000058l9.37500029-106.875C215.74999971 27.750000290000003 63.87499971 198.375 63.87499971 404.62500029 63.87499971 631.5 247.625 815.25000029 474.49999971 815.25000029c206.25000029 0 376.875-151.875 406.87500058-350.62500058l-106.875 9.37500029c-31.87500029 136.87499971-153.74999971 238.12499971-300.00000058 238.12499971zM935.74999971 346.49999971l-209.99999971-103.12499971 168.75-168.75c20.62500029-20.62500029 18.74999971-52.49999971 0-73.125-20.62500029-18.74999971-52.49999971-18.74999971-71.25000029 0l-166.87499942 166.87500029L564.49999971-47.25000029l-170.62499971 530.62500058c-1.87499971 0 541.87499971-136.87499971 541.87499971-136.87500058z"  horiz-adv-x="1024" />

    
    <glyph glyph-name="l-plus" unicode="&#58892;" d="M437.15555556 453.01333333V761.6c0 37.86666667 30.72 68.58666667 68.58666666 68.58666667s68.58666667-30.72 68.58666667-68.58666667v-308.58666667h308.58666667c37.86666667 0 68.58666667-30.72 68.58666666-68.58666666s-30.72-68.58666667-68.58666666-68.58666667H574.32888889v-308.58666667c0-37.86666667-30.72-68.58666667-68.58666667-68.58666666s-68.58666667 30.72-68.58666666 68.58666666V315.84000000000003H128.56888889c-37.86666667 0-68.58666667 30.72-68.58666667 68.58666667s30.72 68.58666667 68.58666667 68.58666666h308.58666667z"  horiz-adv-x="1024" />

    
    <glyph glyph-name="workbench" unicode="&#59058;" d="M852.5 800H171c-60 0-107-45.4-107-104.4V301c0-58 46.9-104.4 107-104.4h682c59.5 0 107 45.9 107 104.4V695.5C959 754.6 912.6 800 852.5 800zM561.9 155.70000000000005H461c-19.2 0-34.3-15.1-34.3-34.3 0-16.1-11.6-30.3-27.2-33.8l-137.2-30.3c-16.1-3-27.2-17.2-27.2-33.8v-21.2c0-19.2 15.1-34.3 34.3-34.3h484.8c19.2 0 34.3 15.1 34.3 34.3V23c0 16.7-11.6 30.8-28.3 33.8L624 83.10000000000002c-16.1 3-28.3 17.2-28.3 33.8v4c1.1 19.2-14.6 34.8-33.8 34.8z m260.4 179.6H200.7c-19.7 0-35.8 16.1-35.8 35.8 0 19.7 16.1 35.8 35.8 35.8h621.6c19.7 0 35.8-16.1 35.8-35.8 0-20.1-15.6-35.8-35.8-35.8z m0 0"  horiz-adv-x="1024" />

    
    <glyph glyph-name="persons" unicode="&#58911;" d="M807.3125-37.875c-25.3125 0-42.1875 16.875-42.1875 42.1875v84.375c0 71.71875-54.84375 126.5625-126.5625 126.5625H301.0625c-71.71875 0-126.5625-54.84375-126.5625-126.5625v-84.375c0-25.3125-16.875-42.1875-42.1875-42.1875s-42.1875 16.875-42.1875 42.1875v84.375c0 118.125 92.8125 210.9375 210.9375 210.9375h337.5c118.125 0 210.9375-92.8125 210.9375-210.9375v-84.375c0-25.3125-16.875-42.1875-42.1875-42.1875zM469.8125 384c-118.125 0-210.9375 92.8125-210.9375 210.9375s92.8125 210.9375 210.9375 210.9375 210.9375-92.8125 210.9375-210.9375-92.8125-210.9375-210.9375-210.9375z m0 337.5C398.09375 721.5 343.25 666.65625 343.25 594.9375s54.84375-126.5625 126.5625-126.5625 126.5625 54.84375 126.5625 126.5625-54.84375 126.5625-126.5625 126.5625zM1060.4375-37.875c-25.3125 0-42.1875 16.875-42.1875 42.1875v84.375c0 59.0625-37.96875 109.6875-92.8125 122.34375-21.09375 4.21875-37.96875 29.53125-29.53125 50.625 4.21875 21.09375 29.53125 37.96875 50.625 29.53125 92.8125-25.3125 156.09375-109.6875 160.3125-202.5v-84.375c-4.21875-25.3125-21.09375-42.1875-46.40625-42.1875zM765.125 388.21875c-16.875 0-37.96875 12.65625-42.1875 33.75-4.21875 21.09375 8.4375 46.40625 29.53125 50.625 46.40625 12.65625 80.15625 46.40625 92.8125 92.8125 16.875 67.5-25.3125 135-92.8125 156.09375-21.09375 0-33.75 25.3125-29.53125 46.40625 4.21875 21.09375 29.53125 37.96875 50.625 29.53125 113.90625-29.53125 181.40625-143.4375 151.875-257.34375-21.09375-75.9375-75.9375-135-151.875-151.875H765.125z"  horiz-adv-x="1233" />

    
    <glyph glyph-name="briefing" unicode="&#59097;" d="M655.8 628.7L581 754.3c-14.2 23.9-40 38.3-69 38.5h-0.5c-28.7 0-54.6-14.1-69.2-37.8l-76.9-126.2h-14.1v-0.7H185.9c-67.1 0-121.7-52-121.7-115.9v-419.9c0-63.9 54.6-115.9 121.7-115.9h651.8c67.1 0 121.6 52 121.6 115.9V512.1c0.1 29.8-11.8 58.2-33.4 79.9-23.2 23.3-54.5 36.1-88.1 36.1H672.3v0.7h-16.5z m-148.4 89.1l8.6-0.4 52.7-88.6H453.1l54.3 89z m330.5-164.6c18.3 0 29.8-8.8 35.1-14 5.3-5.3 11.6-14.2 11.6-26.8v-420.1c0-22.6-21-41.1-46.8-41.1H185.9c-25.8 0-46.8 18.4-46.8 41.1V512.1c0 22.6 21 41 46.8 41h221.2l0.4 0.7h205.8l0.4-0.7h224.2zM269.5 218.89999999999998c0-20.6 17.7-37.4 39.5-37.4h267.5c21.8 0 39.5 16.8 39.5 37.4 0 20.1-16.7 36.5-37.7 37.4H309c-21.7 0.1-39.5-16.7-39.5-37.4zM741.6 423.7H309c-21.8 0-39.5-16.8-39.5-37.4 0-20.6 17.7-37.4 39.5-37.4h432.6c21.8 0 39.5 16.8 39.5 37.4 0 20.6-17.7 37.4-39.5 37.4z"  horiz-adv-x="1024" />

    
    <glyph glyph-name="bell" unicode="&#58917;" d="M492.19356445-45.009983199999965h23.43114272c61.62002173 0 112.75428347 46.08556247 120.13315159 104.98705381H388.63050272c7.37886815-58.90149136 58.6425837-104.98705383 120.26260543-104.98705381h-16.6995437z m397.5527032 158.19257678c-3.10689185 71.9763279-39.35396347 135.79706469-93.98347851 176.96338173V485.23289283c0 112.75428347-81.42645728 207.51448494-189.00258766 230.03945087v4.53088395c0 51.39316939-42.59030914 93.4656632-94.63074765 93.46566321-52.04043852 0-94.63074765-42.07249383-94.63074766-93.46566321v-4.53088395c-107.57613037-22.3955121-189.00258765-117.28516741-189.00258765-230.03945087v-195.21637135c-54.62951506-41.16631703-90.74713283-104.98705383-93.98347852-176.96338173H228.49611852v-0.64726914h567.39612445v0.64726914l93.85402468 0.12945383z"  horiz-adv-x="1024" />

    
    <glyph glyph-name="background-unfold" unicode="&#59030;" d="M512 834C262.45454521 834 62 633.54545479 62 384s200.45454521-450 450-450 450 200.45454521 450 450S761.54545479 834 512 834z m220.90909131-560.45454521c-16.36363653-16.36363653-40.90909131-16.36363653-57.27272784 0l-163.63636347 159.5454539-159.54545479-159.5454539c-8.18181826-8.18181826-20.45454521-12.27272695-32.72727216-12.27272784s-20.45454521 4.09090869-28.63636436 12.27272784c-16.36363653 16.36363653-16.36363653 40.90909131 0 57.27272695l192.27272783 192.27272695c16.36363653 16.36363653 40.90909131 16.36363653 57.27272695 0l192.27272784-192.27272695c16.36363653-16.36363653 16.36363653-40.90909131 0-57.27272695z"  horiz-adv-x="1024" />

    
    <glyph glyph-name="s-seas" unicode="&#58978;" d="M594.00000031 263.05999969000004c85.42000031-26.38000031 116.23999969-68.14000031 160.11999938-123.06 11.53999969-17.59999969 20.77999969-37.36000031 20.78000062-59.31999938 0-54.94000031-46.18000031-96.67999969-106.22000062-96.68000062H135.92C78.2-16.00000031000002 32 27.960000000000036 32 80.68000030999997c0 17.58 4.60000031 35.16 16.18000031 50.52H45.84000031c43.90000031 54.94000031 79.30000031 98.86000031 167.07999938 127.45999969 13.84000031 0 25.39999969 4.38 36.96 10.98l4.60000031 4.38c18.48 13.2 30.01999969 32.95999969 30.01999969 54.94000031 0 24.18-13.84000031 48.31999969-34.62 59.34-32.34 39.54-53.14000031 92.26000031-53.13999938 151.59999938C196.74000031 662.92000031 289.14000031 763.99999969 402.30000031 763.99999969s205.56-98.86000031 205.56-221.94c0-59.29999969-18.48-112.02-53.14000031-151.59999938-13.84000031-15.36-34.63999969-35.14000031-34.63999969-59.30000062 0-22.00000031 11.56000031-43.93999969 30-54.91999969 9.28000031-4.39999969 43.92-13.2 43.92-13.2z m374.91999938-96.69999938c13.84000031-15.36 20.77999969-32.94 23.08000031-57.12 0-48.34000031-41.56000031-85.69999969-94.68-85.70000062h-67.00000031c6.96 17.59999969 11.56000031 32.98000031 11.56000031 52.74 0 35.17999969-13.84000031 68.11999969-36.96 96.68000062-53.11999969 63.70000031-95.44000031 114.25999969-190.15999969 142.8l-9.24 4.39999969h-2.30000062a45.40000031 45.40000031 0 0 0-18.48 4.39999969c-2.29999969 0-2.29999969 0-2.29999969 2.20000031 2.29999969 6.6 9.24 13.18000031 13.84000031 17.58v2.20000031l4.63999969 4.39999969c43.87999969 54.91999969 69.28000031 120.82000031 69.28000031 188.94 0 63.72-18.48 120.84-53.1 169.2a155.95999969 155.95999969 0 0 0 46.17999938 6.6c101.59999969 0 182.44000031-90.12 182.44000031-197.74000031 0-52.74-18.48-98.89999969-48.48-134.05999969-11.56000031-10.98-30.01999969-28.56-30.01999969-50.52 0-19.78000031 9.19999969-37.36000031 25.39999969-48.34000031 9.22000031-4.39999969 39.25999969-10.99999969 39.25999969-10.99999969 76.2-21.96 97.75999969-61.51999969 137.04-107.65999969z m-543.18-37.2l59.28 140.91999938a10.93999969 10.93999969 0 0 1-1.2 10.66000031 12.19999969 12.19999969 0 0 1-9.96 4.99999969h-118.5c-4.00000031 0-7.72000031-1.86-9.93999938-4.99999969a10.93999969 10.93999969 0 0 1-1.2-10.66000031l59.25999938-140.94a12 12 0 0 1 11.12000062-7.15999969 12 12 0 0 1 11.13999938 7.15999969z"  horiz-adv-x="1024" />

    
    <glyph glyph-name="ios" unicode="&#59003;" d="M769.462857 356.57142899999997c1.28-132.937143 125.074286-177.005714 126.354286-177.554286A465.005714 465.005714 0 0 0 830.537143 54.85714299999995c-39.314286-53.577143-79.908571-106.788571-144.274286-107.702857S603.428571-18.285713999999984 530.285714-18.285713999999984s-94.72-33.828571-154.514285-36.571429-109.714286 57.782857-148.845715 111.177143C146.285714 164.57142899999997 84.48 364.25142900000003 167.497143 498.651429a234.24 234.24 0 0 0 195.108571 109.714285c60.891429 0.914286 118.491429-38.4 155.611429-38.4s107.154286 47.177143 180.48 40.411429a227.474286 227.474286 0 0 0 172.617143-87.04c-4.388571-2.742857-103.131429-55.954286-101.851429-167.131429zM510.72 620.6171429999999c-7.131429 50.468571 19.565714 102.765714 50.102857 135.862857A217.782857 217.782857 0 0 0 699.611429 822.857143a184.137143 184.137143 0 0 0-49.005715-140.068572 179.748571 179.748571 0 0 0-139.885714-62.171428z"  horiz-adv-x="1024" />

    
    <glyph glyph-name="customer" unicode="&#58899;" d="M888.59677124 98.83804321000002h-25.91400147V475.47518921c0 22.80761719-18.48504638 41.29760742-41.30007935 41.29760742H636.39297485V764.57409668C636.39297485 787.38336182 617.90875244 805.875 595.09371948 805.875H186.22598266C163.42330932 805.875 144.92755127 787.38336182 144.92755127 764.57574463v-665.73852539H135.56472778c-22.80761719 0-41.29925537-18.48339844-41.29925536-41.28936768v-54.12606813c0-22.80514526 18.49163818-41.29678343 41.29925536-41.29678343H888.59759521c22.81008911 0 41.29431153 18.49163818 41.29431153 41.29760742v54.12606812c0 22.80514526-18.48175049 41.28936768-41.29431153 41.28936767z m-370.59082031 150.86810303c0-22.81585693-18.49411011-41.29925537-41.29925538-41.29925537H304.62207031c-22.81008911 0-41.29925537 18.48422242-41.29925537 41.29925537v12.38845825c0 22.80761719 18.48999023 41.2951355 41.29925537 41.2951355h172.08380127c22.80514526 0 41.29925537-18.48751831 41.29925537-41.2951355v-12.38845825z m0 180.33837891c0-22.80761719-18.49411011-41.30007935-41.29925538-41.30007935H304.62207031c-22.81008911 0-41.29925537 18.49246215-41.29925537 41.30007935v12.38845824c0 22.80761719 18.48999023 41.29925537 41.29925537 41.29925538h172.08380127c22.80514526 0 41.29925537-18.49163818 41.29925537-41.29925538v-12.38845824z m0 194.11193847c0-22.81008911-18.49411011-41.29925537-41.29925538-41.29925537H304.62207031c-22.81008911 0-41.29925537 18.48916626-41.29925537 41.29925537V636.5399780299999c0 22.81585693 18.48999023 41.30255127 41.29925537 41.30255127h172.08380127c22.80514526 0 41.29925537-18.48999023 41.29925537-41.30255127v-12.38351441z m263.45187378-448.10787964h-110.13244629c-19.00415039 0-34.41494751 15.41079712-34.41494751 34.41989136 0 19.00167847 15.41079712 34.41494751 34.41577148 34.41494751h110.13244629c19.00909424 0 34.41741943-15.41326905 34.41741944-34.41494751 0.00247191-19.00909424-15.40832519-34.41989136-34.41741944-34.41989136z m0 139.04818726h-110.13244629c-19.00415039 0-34.41494751 15.40832519-34.41494751 34.41000366 0 19.01733398 15.41079712 34.42318726 34.41577148 34.42318727h110.13244629c19.00909424 0 34.41741943-15.40832519 34.41741944-34.42318727 0.00247191-19.00167847-15.40832519-34.41000367-34.41741944-34.41000366z"  horiz-adv-x="1024" />

    
    <glyph glyph-name="linear-associated" unicode="&#58951;" d="M576.00000031 504c-16.00000031 0-24-16.00000031-32.00000062-31.99999969-7.99999969-16.00000031 0-31.99999969 8.00000062-40.00000031 24-24 40.00000031-64.00000031 39.99999938-96 0-40.00000031-16.00000031-72-39.99999938-103.99999969l-176.00000062-176.00000062c-55.99999969-55.99999969-144-55.99999969-199.99999969 0-24 16.00000031-40.00000031 55.99999969-40.00000031 88.00000031 0 40.00000031 16.00000031 72 40.00000031 103.99999969l120 112.00000031c16.00000031 16.00000031 16.00000031 48 0 64.00000031-16.00000031 16.00000031-24 16.00000031-31.99999969 15.99999938-16.00000031 0-24-7.99999969-32.00000062-15.99999938L111.99999969 312C72.00000031 271.99999969 48.00000031 208.00000031000002 39.99999969 144c0-64.00000031 24-120 64.00000031-168 40.00000031-40.00000031 103.99999969-64.00000031 160.00000031-64.00000031 64.00000031 0 120 24 168 72l175.99999969 176.00000062c48 48 72 103.99999969 72 168s-24 120-64.00000031 168c-7.99999969 7.99999969-24 16.00000031-39.99999938 7.99999969zM912.00000031 784.00000031C824 880.00000031 672.00000031 871.99999969 584 784.00000031L399.99999969 600c-40.00000031-40.00000031-64.00000031-96-63.99999938-160.00000031s24-120 63.99999938-168c7.99999969-7.99999969 24-16.00000031 32.00000062-15.99999938 16.00000031 0 24 7.99999969 31.99999969 15.99999938 7.99999969 7.99999969 16.00000031 24 16.00000031 32.00000062s-7.99999969 24-16.00000031 31.99999969c-24 31.99999969-40.00000031 64.00000031-40.00000031 103.99999969s16.00000031 72 40.00000031 104.00000062l175.99999969 175.99999969c55.99999969 55.99999969 144 55.99999969 200.00000062 0 24-24 40.00000031-64.00000031 39.99999938-103.99999969s-16.00000031-72-39.99999938-104.00000062L728 408c-7.99999969-24-7.99999969-48 7.99999969-64.00000031s40.00000031-16.00000031 64.00000031 0L912.00000031 456c48 48 72 103.99999969 72 168 0 55.99999969-24 120-72 160.00000031z"  horiz-adv-x="1024" />

    
    <glyph glyph-name="log" unicode="&#59194;" d="M781.1 815.1H266.3C210.05 815.1 163.7 769.2 163.7 712.5v-661.5c0-56.25 46.35-102.6 102.6-102.6h514.8c56.25 0 102.6 46.35 102.6 102.6V712.5c0 56.7-46.35 102.6-102.6 102.6z m-159.75-540.45c0-29.7-24.3-54-54-54H326.15c-29.7 0-54 24.3-54 54s24.3 54 54 54h241.2c29.7 0 54-24.3 54-54z m158.85 256.5c0-29.7-24.3-54-54-54H326.15c-29.7 0-54 24.3-54 54s24.3 54 54 54h400.05c29.7 0 54-24.3 54-54z"  horiz-adv-x="1024" />

    
    <glyph glyph-name="funnel" unicode="&#58922;" d="M632.285 1.544999999999959c9.27-22.95-1.8-49.05-24.66-58.5a45.045 45.045 0 0 0-58.5 24.75L66.05 770.8199999999999C56.825 793.95 67.85 819.96 90.8 829.365c22.995 9.27 49.05-1.8 58.5-24.66L632.285 1.5z m3.375-38.835a44.82 44.82 0 1 0-82.62 34.92L1054.61 805.11a44.82 44.82 0 1 0 82.62-34.92L635.66-37.289999999999964zM1139.75 787.65a44.82 44.82 0 0 0-44.865-44.865H107.45a44.82 44.82 0 1 0 0 89.775h987.435c24.66 0 44.865-20.07 44.865-44.91zM274.625 563.28H926.9V473.55H274.625V563.28zM433.115 294h326.115v-89.775H433.115V294z"  horiz-adv-x="1228" />

    
    <glyph glyph-name="disable" unicode="&#58959;" d="M504.27623902 842.66666667A447.95076937 447.95076937 0 0 1 56.17777777 394.56820542a447.95076937 447.95076937 0 0 1 448.09846125-448.0246153 447.95076937 447.95076937 0 0 1 448.02461532 448.0246153A447.95076937 447.95076937 0 0 1 504.27623902 842.66666667zM459.37777776 215.34359012000004H369.80239308V573.86666667h89.64923064v-358.44923063z m179.22461532-2e-8H549.0270084V573.86666667h89.64923062v-358.44923063z"  horiz-adv-x="1024" />

    
    <glyph glyph-name="picture" unicode="&#59190;" d="M212.766 303.58399999999995c5.555 6.319 27.814 29.382 56.559 29.382h0.131c30.615 0 52.834-21.899 56.761-26.041l90.617-91.924c3.696-3.522 10.281-7.425 13.664-7.425 3.712 0 7.295 3.513 8.324 4.612l148.812 222.206c3.646 5.616 29.982 43.716 73.171 43.716 41.454 0 66.547-31.403 71.215-37.782l226.796-286.283v518.64c-0.034 46.288-37.586 83.806-83.84 83.806h-726.46c-46.322 0-83.84-37.518-83.84-83.806v-521.317l148.092 152.217z m156.241 286.662c47.012-0.029 85.117-38.135 85.117-85.111 0-47.041-38.105-85.146-85.117-85.146-47.011 0-85.145 38.137-85.145 85.146 0 46.977 38.134 85.111 85.145 85.111zM690.891 409.791l-0.205 0.313c-1.166 1.523-13.301 16.806-29.882 16.806-13.594 0-26.634-15.014-30.24-20.419l-0.263-0.398-150.38-224.495c-1.913-2.582-19.549-25.223-49.425-25.223-26.185 0-46.106 18.647-49.834 22.385l-0.105 0.105-91.585 92.919c-2.692 2.739-11.559 9.98-19.581 9.98h-0.01c-4.554 0-14.214-7.358-18.293-12.135l-0.541-0.634L70.284 83.71100000000001c12.11-31.393 42.547-53.685 78.228-53.685h726.46c34.387 0 63.937 20.733 76.868 50.369L690.889 409.791z"  horiz-adv-x="1024" />

    
    <glyph glyph-name="o-task" unicode="&#58945;" d="M938.429 183.74099999999999L550.745-48.86400000000003c-10.701-6.399-24.705-9.648-38.745-9.648-14.049 0-28.053 3.249-38.772 9.648L85.562 183.74099999999999c-21.429 12.852-21.429 33.669 0 46.539l65.718 39.438 299.169-179.523c17.154-10.278 38.979-15.966 61.542-15.966 22.554 0 44.415 5.697 61.533 15.966l299.16 179.523 65.736-39.438c21.447-12.87 21.447-33.687 0.009-46.539zM938.429 360.744L550.745 128.12099999999998c-10.701-6.399-24.705-9.63-38.745-9.63-14.049 0-28.053 3.231-38.772 9.63L85.562 360.744c-21.429 12.852-21.429 33.66 0 46.521l65.718 39.438 299.169-179.505c17.154-10.269 38.979-15.939 61.542-15.939 22.554 0 44.415 5.67 61.533 15.939l299.16 179.505 65.736-39.438c21.447-12.861 21.447-33.669 0.009-46.521zM938.429 537.7470000000001L550.745 305.13300000000004c-10.701-6.417-24.705-9.63-38.745-9.63-14.049 0-28.053 3.213-38.772 9.63L85.562 537.7470000000001c-21.429 12.852-21.429 33.687 0 46.53L473.228 816.891C483.947 823.299 497.951 826.503 512 826.503c14.04 0 28.044-3.204 38.745-9.621l387.684-232.614c21.438-12.843 21.438-33.678 0-46.521z"  horiz-adv-x="1024" />

    
    <glyph glyph-name="export" unicode="&#58928;" d="M706.21604844 191.07904499999995L884.0755475 350.13570469c9.88108312 8.63395594 16.02078562 20.6255625 16.02078469 33.86429531 0 13.23873282-6.13970249 25.23033844-16.02078469 33.86429531L706.21604844 576.920955c-7.19496375 4.60477688-16.11671812 7.38682969-25.80593532 7.38682969l-0.28779843 0c-23.88727875 0-43.26571406-17.07604687-43.3616475-38.18127282L636.76066719 508.04117156c0-10.45668-9.78515062-19.09063688-21.77675625-19.09063687l-113.10482625-0.47966438-0.09593251 0c-23.79134624 0-43.07384813-16.98011437-43.07384906-37.98940687l0-132.96292688c0-21.00929344 19.28250188-37.98940782 43.07384906-37.98940687l0.09593251 0 113.10482625-0.47966438c11.99160563 0 21.77675626-8.53802344 21.77675625-19.09063687l0-38.18127281c0.0959325-21.10522594 19.47436781-38.18127281 43.3616475-38.18127282l0.19186499 0c9.78515063 0 18.706905 2.78205281 25.99780219 7.57869469l-0.09593343-0.0959325zM551.38043375 29.624063439999986l0 85.95583031L354.23843281 216.98091375c-17.17197937 8.82582188-27.91645875 26.47746562-27.91645781 45.7599675L326.321975 527.8033378c0 19.28250188 10.74447844 36.93414656 27.91645781 45.75996751L551.38043375 674.86839188l0 63.50754468c0 37.31787751-30.21884718 67.53672469-67.53672469 67.53672469l-247.50674531 0C174.17247969 805.91266125 123.80773437 755.54791687 123.80773437 693.38343187l1e-8-618.76686374c0-62.164485 50.36474438-112.52922937 112.52922937-112.52922938l247.50674531 0c37.31787751 0 67.53672469 30.21884718 67.53672469 67.53672469z"  horiz-adv-x="1024" />

    
    <glyph glyph-name="import" unicode="&#58929;" d="M652.49365437 191.17497749999995c7.29089625-4.70070938 16.30858406-7.57869469 25.99780125-7.57869469l0.19186594 1e-8c23.88727875 0 43.26571406 17.07604687 43.36164656 38.18127281l0 38.18127281c0 10.45668 9.78515062 19.09063688 21.77675625 19.09063687l113.1048272 0.47966438 0.09593249 0c23.79134624 0 43.07384813 16.98011437 43.07384813 37.98940687L900.09633219 450.48146344c0 21.00929344-19.28250188 37.98940782-43.07384813 37.98940687l-0.09593249 0-113.10482719 0.47966438c-11.99160563 0-21.77675625 8.63395594-21.77675625 19.09063687l0 38.18127281c-0.0959325 21.10522594-19.47436781 38.18127281-43.36164657 38.18127281l-0.28779843 1e-8c-9.6892172 0-18.706905-2.78205281-25.80593625-7.38682875L474.73008875 417.86429531c-9.88108312-8.63395594-16.02078562-20.6255625-16.02078562-33.86429531 0-13.23873282 6.13970249-25.23033844 16.02078562-33.86429531l177.85949813-159.05665969-0.0959325 0.0959325zM551.38043375 29.624063439999986l0 85.95583031L354.23843281 216.98091375c-17.17197937 8.82582188-27.91645875 26.47746562-27.91645781 45.7599675L326.321975 527.8033378c0 19.28250188 10.74447844 36.93414656 27.91645781 45.75996751L551.38043375 674.86839188l0 63.50754468c0 37.31787751-30.21884718 67.53672469-67.53672469 67.53672469l-247.50674531 0C174.17247969 805.91266125 123.80773437 755.54791687 123.80773437 693.38343187l1e-8-618.76686374c0-62.164485 50.36474438-112.52922937 112.52922937-112.52922938l247.50674531 0c37.31787751 0 67.53672469 30.21884718 67.53672469 67.53672469z"  horiz-adv-x="1024" />

    
    <glyph glyph-name="remove" unicode="&#58890;" d="M512-66C263.4453125-66 62 135.4453125 62 384S263.4453125 834 512 834s450-201.4453125 450-450-201.4453125-450-450-450z m204.52148438 490.86914063H307.47851562c-22.58789063 0-40.86914063-18.28125-40.86914062-40.86914063s18.28125-40.86914063 40.86914063-40.86914063h409.13085937c22.58789063 0 40.86914063 18.28125 40.86914063 40.86914063s-18.36914063 40.86914063-40.95703125 40.86914062z"  horiz-adv-x="1024" />

    
    <glyph glyph-name="success" unicode="&#58953;" d="M512 833.1C264.05 832.65 62.9 631.95 62.9 384c0-247.95 201.15-448.65 448.65-448.65 247.95 0 448.65 200.7 449.1 448.65C961.1 631.5 759.95 832.65 512 833.1z m257.4-332.55l-290.7-290.25c-15.75-16.2-41.4-16.65-57.6-0.9l-0.9 0.9-166.95 166.95c-16.2 16.2-16.2 42.3 0 58.5 16.2 16.2 42.3 16.2 58.5 0l138.6-138.6 261.45 260.55c16.2 16.2 42.3 16.2 58.5 0.45 16.2-16.2 16.65-42.3 0.45-58.5l-0.45-0.45-0.9 1.35z"  horiz-adv-x="1024" />

    
    <glyph glyph-name="circle-email" unicode="&#58927;" d="M512 834C263.53320312 834 62 632.46679688 62 384s201.4453125-450 450-450 450 201.4453125 450 450S760.46679688 834 512 834z m232.47070313-584.91210938c0-34.453125-27.94921875-62.40234375-62.40234376-62.40234375h-340.13671874c-34.453125 0-62.40234375 27.94921875-62.40234376 62.40234375V456.68554688l226.75781251-120.67382813c3.515625-1.84570313 7.64648438-1.84570313 11.16210937 0l227.02148438 120.84960938v-207.77343751z m-1e-8 256.02539063L511.91210937 378.375l-232.38281249 126.5625v13.97460938c0 34.453125 27.94921875 62.40234375 62.40234374 62.40234374h340.13671876c34.453125 0 62.40234375-27.94921875 62.40234374-62.40234375v-13.79882812z"  horiz-adv-x="1024" />

    
    <glyph glyph-name="icon-opportunities" unicode="&#58934;" d="M384.12481369 609.031823A146.97623858 146.97623858 0 0 1 90.12546884 609.031823a145.28901132 145.28901132 0 0 1 41.14959769-101.60857315 382.48503965 382.48503965 0 0 1-10.63890555-90.03231985 387.87479351 387.87479351 0 0 1 184.14210525-330.13412842l29.62021207 120.40240979a273.09647434 273.09647434 0 0 0-98.4215885 209.73171863 283.73537905 283.73537905 0 0 0 3.70252579 45.03959334A146.74190185 146.74190185 0 0 1 384.12481369 609.031823z m126.12023574 82.01799014a275.6741825 275.6741825 0 0 0 139.43058399-37.77514316 147.11684079 147.11684079 0 1 1 137.08721256 93.26617218 149.97575418 149.97575418 0 0 1-54.03813931-10.21709811A391.71792233 391.71792233 0 0 1 352.58303846 772.7865997l67.20788451-97.2499032a264.0979292 264.0979292 0 0 0 90.45412646 15.51311664z m274.12755745-286.17248501a272.67466773 272.67466773 0 0 0-145.94515549-229.65037372 146.41382977 146.41382977 0 1 1 4.68674286-123.21445468 388.99961197 388.99961197 0 0 1 257.11468258 365.56590015c0 8.57673852-0.28120441 17.24721157-1.0310831 25.8239501l-114.73145151-38.52502185z"  horiz-adv-x="1024" />

    
    <glyph glyph-name="focus-on" unicode="&#59121;" d="M934.59944023 394.61026963c26.46926104 26.46926104 34.41003926 67.49661533 22.49887149 101.90665459-11.91116777 37.05696563-41.0273543 63.52622578-78.08431904 70.14354082L714.90457461 595.77665244c-18.52848281 3.97038955-33.08657607 14.55809326-41.0273543 30.43964971L597.11636357 777.09108926C582.55827031 814.14805401 549.47169424 834 513.7381918 834s-70.1435417-19.85194599-87.34856045-55.58544756l-75.43739356-150.87478711c-7.94077823-15.88155645-25.14579786-29.1161874-41.0273543-30.43965059L145.81546631 567.98392822c-37.05696563-6.61731504-64.84968896-33.08657607-78.08431993-70.14354169S65.08422002 423.72645615 90.23001787 395.93373281l113.81782236-123.08206377c11.91116777-11.91116777 18.52848281-33.08657607 15.88155645-51.615058L196.10706114 53.156804299999976c-6.61731504-37.05696563 10.58770459-75.43739356 38.3804288-97.93626592 15.88155645-11.91116777 37.05696563-19.85194599 56.90891074-19.85194512 14.55809326 0 30.43964971 3.97038955 42.35081749 10.5877046l149.55132392 75.43739355c15.88155645 7.94077823 34.41003926 7.94077823 51.61505889 0L684.4649249-55.367165330000034c33.08657607-15.88155645 71.46700401-14.55809326 101.90665459 7.94077822 29.1161874 22.49887148 44.99774385 59.55583711 38.38042793 97.93626504L803.57659912 221.23661103999996c-2.64692636 18.52848281 3.97038955 37.05696563 15.88155645 51.615058l115.14128466 121.75860059z"  horiz-adv-x="1024" />

    
    </font>
</defs>
</svg>
